<svg width="0" height="0" class="hidden">
    <symbol version="1.1" id="icon-cart" xmlns="http://www.w3.org/2000/svg" xmlns:xlink="http://www.w3.org/1999/xlink" x="0px" y="0px" enable-background="new 0 0 27.63 23.19" xml:space="preserve" viewBox="0 0 27.63 23.19">
        <path d="M7.25,15.69a.5.5,0,0,0,.5.5l15.75-1.5a.5.5,0,0,0,.5-.5L27.63,2.94a.5.5,0,0,0-.5-.5H6.88V.5a.5.5,0,0,0-.5-.5H.5A.5.5,0,0,0,0,.5V2.63a.5.5,0,0,0,.5.5H4.42Z"></path>
        <circle cx="7.63" cy="20.69" r="2.5"></circle>
        <circle cx="22" cy="20.69" r="2.5"></circle>
    </symbol>

    <symbol version="1.1" id="icon-compare" xmlns="http://www.w3.org/2000/svg" xmlns:xlink="http://www.w3.org/1999/xlink" x="0px" y="0px" enable-background="new 0 0 28.64 24.48" xml:space="preserve" viewBox="0 0 28.64 24.48">
        <path d="M3,24.48V11.7A8.7,8.7,0,0,1,19.72,8.36a8.58,8.58,0,0,0-8.23,8.56v7.57h3V16.91a5.58,5.58,0,0,1,5.57-5.57l.31,0c0,.11,0,.23,0,.34V24.48h3v-12a5.56,5.56,0,0,1,2.25,4.46v7.57h3V16.91a8.58,8.58,0,0,0-5.61-8A11.69,11.69,0,0,0,0,11.7V24.48Z"></path>
    </symbol>

    <symbol version="1.1" id="icon-angle-down" xmlns="http://www.w3.org/2000/svg" xmlns:xlink="http://www.w3.org/1999/xlink" x="0px" y="0px" enable-background="new 0 0 50 50" xml:space="preserve" viewBox="0 0 50 50">
        <path fill="#C55100" d="M37.516,18.034l-5.185-5.185c-0.195-0.196-0.53-0.177-0.749,0.042L21.391,23.082l-9.624-9.624
        c-0.195-0.196-0.512-0.196-0.707,0l-5.185,5.185c-0.196,0.195-0.196,0.512,0,0.707l9.967,9.967c0.003,0.004,0.004,0.009,0.008,0.013
        l5.185,5.186c0.195,0.195,0.53,0.177,0.749-0.042l15.69-15.69C37.693,18.564,37.712,18.229,37.516,18.034z"></path>
    </symbol>
  
    <symbol version="1.1" id="icon-location" xmlns="http://www.w3.org/2000/svg" xmlns:xlink="http://www.w3.org/1999/xlink" x="0px" y="0px" enable-background="new 0 0 27 16.17" xml:space="preserve" viewBox="0 0 27 16.17">
        <polygon points="25.83 14.5 25.83 9.5 22.83 9.5 22.83 11.33 21.67 11.33 21.67 7.83 20.33 7.83 20.33 5.33 19.67 5.33 19.67 7.83 18.33 7.83 18.33 9.17 17.17 9.17 17.17 4.83 13.33 8.83 13.33 1.33 12.17 1.33 12.17 0 11.33 0 11.33 1.33 9.83 1.33 9.83 5.33 7.83 5.33 7.83 4.17 7 4.17 7 3.17 6 3.17 6 0.33 5.17 0.33 5.17 3.17 4.17 3.17 4.17 4.17 3.17 4.17 3.17 5.33 1.67 5.33 1.67 14.83 0 16.17 27 16.17 27 14.5 25.83 14.5"></polygon>
    </symbol>

    <symbol version="1.1" id="icon-search" xmlns="http://www.w3.org/2000/svg" xmlns:xlink="http://www.w3.org/1999/xlink" x="0px" y="0px" enable-background="new 0 0 24.44 25.13" xml:space="preserve" viewBox="0 0 24.44 25.13">
        <path d="M24,22.56l-5.23-5.23a10.61,10.61,0,1,0-2.22,2l5.33,5.33A1.5,1.5,0,1,0,24,22.56Zm-21-12a7.59,7.59,0,1,1,7.59,7.59A7.6,7.6,0,0,1,3,10.59Z"></path>
    </symbol>

    <symbol xmlns="http://www.w3.org/2000/svg" viewBox="0 0 22.98 24.11" id="icon-catalog-furniture">
        <title>icon-catalog-furniture</title>
        <g id="Слой_2">
        <g id="Слой_1-2">
            <circle cx="5.18" cy="6.46" r="1"></circle>
            <circle cx="4.05" cy="12.34" r="1"></circle>
            <circle cx="4.99" cy="17.52" r="1"></circle>
            <path d="M20.68,1.72H15.55a2.28,2.28,0,0,0-1,.26V1.65A1.62,1.62,0,0,0,12.93,0H10.17A1.62,1.62,0,0,0,8.59,1.65v.4a2.27,2.27,0,0,0-1.16-.33H2.3A2.3,2.3,0,0,0,0,4V20.46a2.3,2.3,0,0,0,2.3,2.3H7.43a2.27,2.27,0,0,0,1.16-.33v0a1.62,1.62,0,0,0,1.59,1.65h2.75a1.62,1.62,0,0,0,1.58-1.61,2.27,2.27,0,0,0,1,.26h5.13a2.3,2.3,0,0,0,2.3-2.3V4A2.3,2.3,0,0,0,20.68,1.72ZM8.43,20.46a1,1,0,0,1-1,1H2.3a1,1,0,0,1-1-1V4a1,1,0,0,1,1-1H7.43a1,1,0,0,1,1,1Zm1.46-10h3.33v2.76H9.89Zm3.33-1.3H9.89V6.49h3.33ZM9.89,14.55h3.33v2.7H9.89ZM10.17,1.3h2.75a.33.33,0,0,1,.29.35V5.19H9.89V1.65A.33.33,0,0,1,10.17,1.3Zm2.75,21.51H10.17a.33.33,0,0,1-.29-.35V18.55h3.33v3.91A.32.32,0,0,1,12.93,22.81Zm8.75-2.35a1,1,0,0,1-1,1H15.55a1,1,0,0,1-1-1V4a1,1,0,0,1,1-1h5.13a1,1,0,0,1,1,1Z"></path>
            <circle cx="17.8" cy="6.46" r="1"></circle>
            <circle cx="18.93" cy="12.34" r="1"></circle>
            <circle cx="17.99" cy="17.52" r="1"></circle>
        </g>
        </g>
    </symbol>
    <symbol xmlns="http://www.w3.org/2000/svg" viewBox="0 0 17.52 24.94" id="icon-catalog-handle">
        <title>icon-catalog-handle</title>
        <g id="Слой_2">
        <g id="Слой_1-2">
            <path d="M16.61,7.27H7.39a1.81,1.81,0,1,0,0,1.81h9.22a.91.91,0,0,0,0-1.81Z"></path>
            <path d="M5.75,4.36a3.81,3.81,0,0,1,2.46.91h3.11V5a5,5,0,0,0-5-5H5A5,5,0,0,0,0,5V19.94a5,5,0,0,0,5,5H6.31a5,5,0,0,0,5-5V11.08H8.21A3.81,3.81,0,1,1,5.75,4.36ZM5.66,15.94a1.37,1.37,0,0,1,.94,2.38V20a.94.94,0,1,1-1.88,0V18.31a1.37,1.37,0,0,1,.94-2.38Z"></path>
        </g>
        </g>
    </symbol>
    <symbol xmlns="http://www.w3.org/2000/svg" viewBox="0 0 20.43 21.13" id="icon-catalog-keys">
        <title>icon-catalog-keys</title>
        <g id="Слой_2">
        <g id="Слой_1-2">
            <path d="M18.42,0H11.55a2,2,0,0,0-2,2V8.88a2,2,0,0,0,2,2H13v2.19h1a.5.5,0,0,1,.5.5v.19a.5.5,0,0,1-.5.5H13v1h1a.5.5,0,0,1,.5.5v.19a.5.5,0,0,1-.5.5H13V19h0a.41.41,0,0,0,.11.36L14.75,21a.42.42,0,0,0,.6,0L17,19.36a.41.41,0,0,0,.11-.36h0V10.88h1.3a2,2,0,0,0,2-2V2A2,2,0,0,0,18.42,0ZM15,2.31a1,1,0,1,1-1,1A1,1,0,0,1,15,2.31Z"></path>
            <path d="M8.13,1.67,4.9,4.9a2,2,0,0,0,0,2.83l1,1L4.37,10.29l.72.72a.5.5,0,0,1,0,.71L5,11.85a.5.5,0,0,1-.71,0l-.72-.72-.71.71.72.72a.5.5,0,0,1,0,.71l-.13.13a.5.5,0,0,1-.71,0L2,12.68.17,14.49h0a.41.41,0,0,0-.18.33v2.33a.42.42,0,0,0,.42.42H2.75a.41.41,0,0,0,.33-.18h0l5-5V1.67Z"></path>
        </g>
        </g>
    </symbol>
    <symbol xmlns="http://www.w3.org/2000/svg" viewBox="0 0 25.56 25.38" id="icon-catalog-lock">
        <title>icon-catalog-lock</title>
        <g id="Слой_2">
        <g id="Слой_1-2">
            <path d="M25.56,11.38V7.5H20.44V2a2,2,0,0,0-2-2H2A2,2,0,0,0,0,2V23.38a2,2,0,0,0,2,2H18.44a2,2,0,0,0,2-2V17.5h5.13V13.63H20.44V11.38ZM3.84,22.88a1.34,1.34,0,1,1,1.34-1.34A1.34,1.34,0,0,1,3.84,22.88Zm0-18.06A1.34,1.34,0,1,1,5.19,3.47,1.34,1.34,0,0,1,3.84,4.81Zm9.78,10H11.56v0a1.2,1.2,0,1,1-2.41,0v0H7.09a.78.78,0,0,1,0-1.56H9.16v0a1.2,1.2,0,1,1,2.41,0v0h2.06a.78.78,0,0,1,0,1.56Zm3.09,8.09a1.34,1.34,0,1,1,1.34-1.34A1.34,1.34,0,0,1,16.72,22.88Zm0-18.06a1.34,1.34,0,1,1,1.34-1.34A1.34,1.34,0,0,1,16.72,4.81Z"></path>
        </g>
        </g>
    </symbol>
    <symbol xmlns="http://www.w3.org/2000/svg" viewBox="0 0 26 24.83" id="icon-catalog-master">
        <title>icon-catalog-master</title>
        <g id="Слой_2">
        <g id="Слой_1-2">
            <rect y="12.89" width="1" height="4.92"></rect>
            <rect x="3" y="11.78" width="1" height="7.13"></rect>
            <path d="M25.44,18H15.81a1.56,1.56,0,1,0,0,1.13h9.63a.56.56,0,0,0,0-1.13Z"></path>
            <path d="M14.57,22.08A3.56,3.56,0,1,1,17,16h4.17V1a1,1,0,0,0-1-1h-12a1,1,0,0,0-1,1V23.83a1,1,0,0,0,1,1h12a1,1,0,0,0,1-1V21.08H17A3.54,3.54,0,0,1,14.57,22.08ZM17.7,1.79h2v2h-2Zm0,3h2v2h-2Zm0,3h2v2h-2Zm-3-6h2v2h-2Zm0,3h2v2h-2Zm0,3h2v2h-2Zm0,3h2v2h-2Zm-3-9h2v2h-2Zm0,3h2v2h-2Zm0,3h2v2h-2Zm0,3h2v2h-2Zm-1-1h-2v-2h2Zm0-3h-2v-2h2Zm0-3h-2v-2h2Z"></path>
        </g>
        </g>
    </symbol>
</svg>
