<?xml version="1.0" encoding="utf-8"?>
<!-- Generator: Adobe Illustrator 15.1.0, SVG Export Plug-In . SVG Version: 6.00 Build 0)  -->
<!DOCTYPE svg PUBLIC "-//W3C//DTD SVG 1.1//EN" "http://www.w3.org/Graphics/SVG/1.1/DTD/svg11.dtd">
<svg version="1.1" id="Слой_1" xmlns="http://www.w3.org/2000/svg" xmlns:xlink="http://www.w3.org/1999/xlink" x="0px" y="0px"
	 width="463.799px" height="492.077px" viewBox="0 0 463.799 492.077" enable-background="new 0 0 463.799 492.077"
	 xml:space="preserve">
<g>
	<path fill="#FFFFFF" d="M295.366,136.727c8.8,22.96,7.199,45.15-4.75,65.96c-9.11,15.87-21.12,24.99-21.23,25.08
		c-1.54,1.14-2.439,2.95-2.42,4.87l1,101c0.02,2.16,1.2,4.141,3.09,5.19c0.91,0.5,1.91,0.75,2.91,0.75c1.09,0,2.17-0.29,3.13-0.88
		l36-22c1.76-1.08,2.851-2.99,2.87-5.061l0.96-92.669c4.8-3.15,14.21-10.28,22.58-22.19c10.6-15.12,21.53-41.18,13.33-79.46
		c-9.351-43.6-37.99-61.35-60.38-68.57c-5.561-1.79-10.98-3.03-16.05-3.88l81.239-30.3c8.04-2.26,16.63-2.67,25.551-1.17
		c37.149,6.25,67.689,43.4,68.1,82.81c0.2,19.51-7.3,36.92-20.59,47.77l0.189,0.23c-1.97,1.72-3.89,3.24-5.689,4.66
		c-6.891,5.42-13.4,10.55-14.221,21.25c-1.01,13.11-0.06,111.34-0.02,115.52l0.01,0.471l0.07,0.43c0.2,1.29,4.63,31.79-27.58,46.59
		c-28.31,13-169.95,89.521-238.03,126.44c3.02-9.44,3.53-19.51,3.53-27.99v-137.22c3.96-2.681,7.68-5.74,11.09-9.19
		c15.27-15.42,23.53-37.2,23.29-61.32c-0.26-25.47-9.85-50.95-26.99-71.74c-17.12-20.78-39.81-34.48-63.92-38.61l111.36-41.54
		c0.59,0.12,1.22,0.15,1.85,0.08c0.16-0.02,15.94-1.67,34.77,5.48C265.465,87.037,283.956,106.957,295.366,136.727z"/>
	<path fill="#FFFFFF" d="M341.095,119.836c5.811,27.1,2.08,50.51-11.1,69.58c-9.891,14.33-21.74,20.8-21.84,20.86
		c-1.94,1.03-3.171,3.04-3.19,5.24l-0.96,92.67l-24.15,14.76l-0.859-87.54c4.41-3.77,13.93-12.8,21.779-26.32
		c9.671-16.64,18.521-43.45,5.79-76.66c-15.909-41.52-42.76-58.99-62.479-66.35c-4.83-1.8-9.47-3.09-13.76-4.02l17.541-6.54
		c1.989-0.21,20.6-1.9,40.909,4.65C316.956,69.257,334.565,89.327,341.095,119.836z"/>
	<path fill="#1D1D1B" d="M106.215,295.176c17.45,0,33.54-6.55,45.31-18.449c13-13.131,20.03-31.871,19.82-52.76
		c-0.49-46.97-36.91-91.24-81.2-98.7c-4.21-0.7-8.42-1.06-12.52-1.06c-17.45,0-33.54,6.55-45.32,18.44
		c-12.99,13.13-20.02,31.87-19.8,52.77c0.48,47.13,37.03,91.43,81.47,98.74C98.085,294.836,102.206,295.176,106.215,295.176z
		 M306.565,132.427c12.73,33.21,3.881,60.02-5.79,76.66c-7.85,13.52-17.369,22.55-21.779,26.32l0.859,87.54l24.15-14.76l0.96-92.67
		c0.02-2.2,1.25-4.21,3.19-5.24c0.1-0.06,11.949-6.53,21.84-20.86c13.18-19.07,16.91-42.48,11.1-69.58
		c-6.53-30.51-24.14-50.58-52.32-59.67c-20.31-6.55-38.92-4.86-40.909-4.65l-17.541,6.54c4.291,0.93,8.93,2.22,13.76,4.02
		C263.805,73.437,290.656,90.907,306.565,132.427z M352.835,117.317c8.2,38.28-2.73,64.34-13.33,79.46
		c-8.37,11.91-17.78,19.04-22.58,22.19l-0.96,92.669c-0.02,2.07-1.11,3.98-2.87,5.061l-36,22c-0.96,0.59-2.04,0.88-3.13,0.88
		c-1,0-2-0.25-2.91-0.75c-1.89-1.05-3.07-3.03-3.09-5.19l-1-101c-0.02-1.92,0.88-3.73,2.42-4.87c0.11-0.09,12.12-9.21,21.23-25.08
		c11.949-20.81,13.55-43,4.75-65.96c-11.41-29.77-29.9-49.69-54.95-59.21c-18.83-7.15-34.61-5.5-34.77-5.48
		c-0.63,0.07-1.26,0.04-1.85-0.08l-111.36,41.54c24.11,4.13,46.8,17.83,63.92,38.61c17.14,20.79,26.73,46.27,26.99,71.74
		c0.24,24.12-8.02,45.9-23.29,61.32c-3.41,3.45-7.13,6.51-11.09,9.19v137.22c0,8.48-0.51,18.55-3.53,27.99
		c68.08-36.92,209.72-113.44,238.03-126.44c32.21-14.8,27.78-45.3,27.58-46.59l-0.07-0.43l-0.01-0.471
		c-0.04-4.18-0.99-102.41,0.02-115.52c0.82-10.7,7.33-15.83,14.221-21.25c1.8-1.42,3.72-2.94,5.689-4.66l-0.189-0.23
		c13.29-10.85,20.79-28.26,20.59-47.77c-0.41-39.41-30.95-76.56-68.1-82.81c-8.921-1.5-17.511-1.09-25.551,1.17l-81.239,30.3
		c5.069,0.85,10.489,2.09,16.05,3.88C314.845,55.967,343.485,73.717,352.835,117.317z M463.295,96.086
		c0.189,18.96-5.88,36.36-16.92,49.27l0.149,0.12c-4.93,5.76-9.899,9.67-13.89,12.81c-6.43,5.06-9.29,7.52-9.689,12.75
		c-0.94,12.19-0.051,107.13,0.02,114.09c0.3,2.271,1.19,11.36-1.85,22.2c-3.19,11.37-11.45,26.96-32.65,36.7
		c-30.89,14.2-204.78,108.42-258.1,137.38c-3.15,2.33-6.71,4.27-10.68,5.8c-2.96,1.61-4.66,2.54-4.85,2.64l-0.48-0.88
		c-6.29,1.73-13.42,2.61-21.39,2.61c-23.59,0-35.46-12.57-41.26-23.11c-6.09-11.08-6.71-22.13-6.73-22.59l-0.01-0.26l-0.99-162.01
		c-25.76-21.11-43.12-53.93-43.47-88.07c-0.25-24.13,8.01-45.91,23.28-61.33c8.57-8.67,19.05-14.94,30.62-18.52
		c0.64-0.76,1.47-1.36,2.46-1.73l296.28-110.52l-0.02-0.08c10.13-3.06,20.92-3.67,32.06-1.79c20.75,3.49,40.29,15.25,55.011,33.11
		C454.866,52.477,463.065,74.277,463.295,96.086z M136.965,431.577v-130.67c-9.49,4.1-19.9,6.27-30.75,6.27
		c-4.66,0-9.43-0.399-14.19-1.18c-12.75-2.1-24.93-6.9-35.99-13.76l0.93,153.14c0.16,2.44,2.92,34.2,36,34.2
		c8.69,0,15.72-1.1,21.42-3.14c2.42-1.32,5.58-3.04,9.37-5.101C134.175,463.086,136.965,449.126,136.965,431.577z"/>
	<path fill="#1D1D1B" d="M95.225,237.767c0.45,0.11,0.9,0.25,1.32,0.42C96.135,238.007,95.695,237.867,95.225,237.767z
		 M94.745,237.677c-0.21-0.04-0.42-0.06-0.63-0.07C94.325,237.617,94.545,237.646,94.745,237.677z M88.965,144.927
		c6.53,4.04,16.51,11.69,17.69,21.34c0.65,5.31-1.45,10.39-5.9,14.32c-3.31,2.9-5.92,5.15-7.79,6.69v20.43
		c1.21,0.79,2.45,1.82,3.61,3.16c4,4.61,5.63,11.16,4.85,19.46c-0.71,7.62-0.67,10.9-0.59,12.14c0.41,0.95,0.63,2.01,0.63,3.11
		c0,4.42-3.58,8-8,8c-2.27,0-4.46-0.98-6.01-2.68c-2.57-2.82-3.41-6.51-1.95-22.07c0.39-4.2-0.27-6.62-1.03-7.49
		c-0.06-0.07,0.18-0.27,0.09-0.27c-4.26-0.21-7.6-3.73-7.6-7.99v-28.45c-0.37-2.23,0.21-4.61,1.75-6.55
		c0.85-1.05,1.92-1.85,3.11-2.36c1.13-0.9,3.51-2.89,8.35-7.15c0.29-0.25,0.46-0.44,0.56-0.56c-0.62-2.51-7.23-8.1-13.45-11.33
		c-2.65-1.37-4.32-4.11-4.32-7.1v-5.37c-11.04,1.37-21.08,6.19-28.75,13.95c-10.14,10.23-15.63,24.88-15.46,41.23
		c0.38,37.05,29.09,71.86,64,77.61c3.21,0.53,6.43,0.79,9.57,0.79c13.59,0,26.13-5.1,35.29-14.36
		c10.14-10.239,15.63-24.879,15.46-41.229c-0.38-36.92-28.99-71.72-63.78-77.57c-0.11-0.02-0.22-0.03-0.33-0.05V144.927z
		 M143.265,164.067c13.85,16.81,21.6,37.41,21.81,58c0.2,19.58-6.52,37.27-18.93,49.8c-11.44,11.56-27,17.92-43.82,17.92
		c-3.79,0-7.66-0.32-11.52-0.95c-40.39-6.649-73.61-46.72-74.05-89.32c-0.2-19.59,6.52-37.27,18.93-49.81
		c11.43-11.55,27-17.92,43.82-17.92c3.87,0,7.84,0.34,11.79,1.01C110.905,136.097,129.355,147.197,143.265,164.067z"/>
	<path fill="#FFFFFF" d="M136.965,300.907v130.67c0,17.55-2.79,31.51-13.21,39.76c-3.79,2.061-6.95,3.78-9.37,5.101
		c-5.7,2.04-12.73,3.14-21.42,3.14c-33.08,0-35.84-31.76-36-34.2l-0.93-153.14c11.06,6.859,23.24,11.66,35.99,13.76
		c4.76,0.78,9.53,1.18,14.19,1.18C117.065,307.176,127.475,305.006,136.965,300.907z"/>
	<path fill="#FFFFFF" d="M89.295,144.626c34.79,5.85,63.4,40.65,63.78,77.57c0.17,16.35-5.32,30.99-15.46,41.229
		c-9.16,9.261-21.7,14.36-35.29,14.36c-3.14,0-6.36-0.26-9.57-0.79c-34.91-5.75-63.62-40.56-64-77.61
		c-0.17-16.35,5.32-31,15.46-41.23c7.67-7.76,17.71-12.58,28.75-13.95v5.37c0,2.99,1.67,5.73,4.32,7.1
		c6.22,3.23,12.83,8.82,13.45,11.33c-0.1,0.12-0.27,0.31-0.56,0.56c-4.84,4.26-7.22,6.25-8.35,7.15c-1.19,0.51-2.26,1.31-3.11,2.36
		c-1.54,1.94-2.12,4.32-1.75,6.55v28.45c0,4.26,3.34,7.78,7.6,7.99c0.09,0-0.15,0.2-0.09,0.27c0.76,0.87,1.42,3.29,1.03,7.49
		c-1.46,15.56-0.62,19.25,1.95,22.07c1.55,1.699,3.74,2.68,6.01,2.68c4.42,0,8-3.58,8-8c0-1.1-0.22-2.16-0.63-3.11
		c-0.08-1.24-0.12-4.52,0.59-12.14c0.78-8.3-0.85-14.85-4.85-19.46c-1.16-1.34-2.4-2.37-3.61-3.16v-20.43
		c1.87-1.54,4.48-3.79,7.79-6.69c4.45-3.93,6.55-9.01,5.9-14.32c-1.18-9.65-11.16-17.3-17.69-21.34v-0.35
		C89.075,144.597,89.186,144.606,89.295,144.626z"/>
	<path fill="#FFFFFF" d="M90.805,288.836c3.86,0.63,7.73,0.95,11.52,0.95c16.82,0,32.38-6.36,43.82-17.92
		c12.41-12.53,19.13-30.22,18.93-49.8c-0.21-20.59-7.96-41.19-21.81-58c-13.91-16.87-32.36-27.97-51.97-31.27
		c-3.95-0.67-7.92-1.01-11.79-1.01c-16.82,0-32.39,6.37-43.82,17.92c-12.41,12.54-19.13,30.22-18.93,49.81
		C17.195,242.117,50.416,282.187,90.805,288.836z M171.345,223.967c0.21,20.89-6.82,39.629-19.82,52.76
		c-11.77,11.899-27.86,18.449-45.31,18.449c-4.01,0-8.13-0.34-12.24-1.02c-44.44-7.311-80.99-51.61-81.47-98.74
		c-0.22-20.9,6.81-39.64,19.8-52.77c11.78-11.89,27.87-18.44,45.32-18.44c4.1,0,8.31,0.36,12.52,1.06
		C134.436,132.727,170.855,176.997,171.345,223.967z"/>
</g>
<g>
	<path fill="none" d="M463.295,96.086c0.189,18.96-5.88,36.36-16.92,49.27l0.149,0.12c-4.93,5.76-9.899,9.67-13.89,12.81
		c-6.43,5.06-9.29,7.52-9.689,12.75c-0.94,12.19-0.051,107.13,0.02,114.09c0.3,2.271,1.19,11.36-1.85,22.2
		c-3.19,11.37-11.45,26.96-32.65,36.7c-30.89,14.2-204.78,108.42-258.1,137.38c-3.15,2.33-6.71,4.27-10.68,5.8
		c-2.96,1.61-4.66,2.54-4.85,2.64l-0.48-0.88c-6.29,1.73-13.42,2.61-21.39,2.61c-23.59,0-35.46-12.57-41.26-23.11
		c-6.09-11.08-6.71-22.13-6.73-22.59l-0.01-0.26l-0.99-162.01c-25.76-21.11-43.12-53.93-43.47-88.07
		c-0.25-24.13,8.01-45.91,23.28-61.33c8.57-8.67,19.05-14.94,30.62-18.52c0.64-0.76,1.47-1.36,2.46-1.73l296.28-110.52l-0.02-0.08
		c10.13-3.06,20.92-3.67,32.06-1.79c20.75,3.49,40.29,15.25,55.011,33.11C454.866,52.477,463.065,74.277,463.295,96.086z"/>
	<path fill="none" d="M451.295,96.207c-0.41-39.41-30.95-76.56-68.1-82.81c-8.921-1.5-17.511-1.09-25.551,1.17l-81.239,30.3
		c5.069,0.85,10.489,2.09,16.05,3.88c22.39,7.22,51.029,24.97,60.38,68.57c8.2,38.28-2.73,64.34-13.33,79.46
		c-8.37,11.91-17.78,19.04-22.58,22.19l-0.96,92.669c-0.02,2.07-1.11,3.98-2.87,5.061l-36,22c-0.96,0.59-2.04,0.88-3.13,0.88
		c-1,0-2-0.25-2.91-0.75c-1.89-1.05-3.07-3.03-3.09-5.19l-1-101c-0.02-1.92,0.88-3.73,2.42-4.87c0.11-0.09,12.12-9.21,21.23-25.08
		c11.949-20.81,13.55-43,4.75-65.96c-11.41-29.77-29.9-49.69-54.95-59.21c-18.83-7.15-34.61-5.5-34.77-5.48
		c-0.63,0.07-1.26,0.04-1.85-0.08l-111.36,41.54c24.11,4.13,46.8,17.83,63.92,38.61c17.14,20.79,26.73,46.27,26.99,71.74
		c0.24,24.12-8.02,45.9-23.29,61.32c-3.41,3.45-7.13,6.51-11.09,9.19v137.22c0,8.48-0.51,18.55-3.53,27.99
		c68.08-36.92,209.72-113.44,238.03-126.44c32.21-14.8,27.78-45.3,27.58-46.59l-0.07-0.43l-0.01-0.471
		c-0.04-4.18-0.99-102.41,0.02-115.52c0.82-10.7,7.33-15.83,14.221-21.25c1.8-1.42,3.72-2.94,5.689-4.66l-0.189-0.23
		C443.996,133.126,451.496,115.717,451.295,96.207z"/>
	<path fill="none" d="M329.996,189.417c13.18-19.07,16.91-42.48,11.1-69.58c-6.53-30.51-24.14-50.58-52.32-59.67
		c-20.31-6.55-38.92-4.86-40.909-4.65l-17.541,6.54c4.291,0.93,8.93,2.22,13.76,4.02c19.72,7.36,46.57,24.83,62.479,66.35
		c12.73,33.21,3.881,60.02-5.79,76.66c-7.85,13.52-17.369,22.55-21.779,26.32l0.859,87.54l24.15-14.76l0.96-92.67
		c0.02-2.2,1.25-4.21,3.19-5.24C308.255,210.217,320.105,203.747,329.996,189.417z"/>
	<path fill="none" d="M151.525,276.727c13-13.131,20.03-31.871,19.82-52.76c-0.49-46.97-36.91-91.24-81.2-98.7
		c-4.21-0.7-8.42-1.06-12.52-1.06c-17.45,0-33.54,6.55-45.32,18.44c-12.99,13.13-20.02,31.87-19.8,52.77
		c0.48,47.13,37.03,91.43,81.47,98.74c4.11,0.68,8.23,1.02,12.24,1.02C123.666,295.176,139.755,288.626,151.525,276.727z"/>
	<path fill="none" d="M136.965,431.577v-130.67c-9.49,4.1-19.9,6.27-30.75,6.27c-4.66,0-9.43-0.399-14.19-1.18
		c-12.75-2.1-24.93-6.9-35.99-13.76l0.93,153.14c0.16,2.44,2.92,34.2,36,34.2c8.69,0,15.72-1.1,21.42-3.14
		c2.42-1.32,5.58-3.04,9.37-5.101C134.175,463.086,136.965,449.126,136.965,431.577z"/>
	<path fill="none" d="M95.225,237.767c0.45,0.11,0.9,0.25,1.32,0.42c0.14,0.06,0.29,0.12,0.42,0.19h0.01
		c0.14,0.07,0.27,0.14,0.4,0.22c0.08,0.04,0.16,0.09,0.24,0.14c0.05,0.02,0.1,0.06,0.15,0.09l0.01,0.01
		c0.13,0.08,0.25,0.16,0.37,0.25"/>
	<path fill="none" d="M94.745,237.677c-0.21-0.04-0.42-0.06-0.63-0.07C94.325,237.617,94.545,237.646,94.745,237.677z"/>
	<path fill="none" d="M94.745,237.677c0.16,0.03,0.32,0.06,0.48,0.09"/>
	<path fill="none" d="M96.545,238.187c-0.41-0.18-0.85-0.32-1.32-0.42"/>
	<path fill="none" d="M101.425,230.327c-0.71,7.62-0.67,10.9-0.59,12.14c0.41,0.95,0.63,2.01,0.63,3.11c0,4.42-3.58,8-8,8
		c-2.27,0-4.46-0.98-6.01-2.68c-2.57-2.82-3.41-6.51-1.95-22.07c0.39-4.2-0.27-6.62-1.03-7.49c-0.06-0.07,0.18-0.27,0.09-0.27
		c-4.26-0.21-7.6-3.73-7.6-7.99v-28.45c-0.37-2.23,0.21-4.61,1.75-6.55c0.85-1.05,1.92-1.85,3.11-2.36c1.13-0.9,3.51-2.89,8.35-7.15
		c0.29-0.25,0.46-0.44,0.56-0.56c-0.62-2.51-7.23-8.1-13.45-11.33c-2.65-1.37-4.32-4.11-4.32-7.1v-5.37
		c-11.04,1.37-21.08,6.19-28.75,13.95c-10.14,10.23-15.63,24.88-15.46,41.23c0.38,37.05,29.09,71.86,64,77.61
		c3.21,0.53,6.43,0.79,9.57,0.79c13.59,0,26.13-5.1,35.29-14.36c10.14-10.239,15.63-24.879,15.46-41.229
		c-0.38-36.92-28.99-71.72-63.78-77.57c-0.11-0.02-0.22-0.03-0.33-0.05v0.35c6.53,4.04,16.51,11.69,17.69,21.34
		c0.65,5.31-1.45,10.39-5.9,14.32c-3.31,2.9-5.92,5.15-7.79,6.69v20.43c1.21,0.79,2.45,1.82,3.61,3.16
		C100.575,215.477,102.206,222.027,101.425,230.327z"/>
	<path fill="none" d="M165.075,222.067c0.2,19.58-6.52,37.27-18.93,49.8c-11.44,11.56-27,17.92-43.82,17.92
		c-3.79,0-7.66-0.32-11.52-0.95c-40.39-6.649-73.61-46.72-74.05-89.32c-0.2-19.59,6.52-37.27,18.93-49.81
		c11.43-11.55,27-17.92,43.82-17.92c3.87,0,7.84,0.34,11.79,1.01c19.61,3.3,38.06,14.4,51.97,31.27
		C157.115,180.876,164.865,201.477,165.075,222.067z"/>
</g>
</svg>
