<?xml version="1.0" encoding="utf-8"?>
<!-- Generator: Adobe Illustrator 15.1.0, SVG Export Plug-In . SVG Version: 6.00 Build 0)  -->
<!DOCTYPE svg PUBLIC "-//W3C//DTD SVG 1.1//EN" "http://www.w3.org/Graphics/SVG/1.1/DTD/svg11.dtd">
<svg version="1.1" id="Слой_1" xmlns="http://www.w3.org/2000/svg" xmlns:xlink="http://www.w3.org/1999/xlink" x="0px" y="0px"
	 width="318.106px" height="431.33px" viewBox="0 0 318.106 431.33" enable-background="new 0 0 318.106 431.33"
	 xml:space="preserve">
<path fill="#FFFFFF" d="M304,82.75c0.03,1.76,2.66,176.16,2,253.2c-0.24,28.26-11.51,50.39-33.52,65.85
	c3.3-4.02,5.939-8.09,8.04-11.92c9.31-17.029,10.109-32.95,10.14-33.62c0.01-0.09,0.01-0.17,0.01-0.26V87.33
	c0-23.17-11.13-42.32-32.17-55.35c-15.46-9.57-30.78-12.44-31.42-12.551c-0.39-0.069-0.771-0.109-1.16-0.1l-169.1,2.45
	c13.8-7.5,26.149-9.49,28.21-9.78l149.79,1.33c28.05,4.69,48.18,17.68,59.84,38.6C303.51,67.82,304,82.66,304,82.75z"/>
<path fill="#FFFFFF" d="M266.67,225.7c0,24.53-11.58,50.59-27.09,70.66c6.29-14.38,9.76-30.601,9.76-47.99
	c0-33.1-12.49-65.7-35.16-91.79c-22.689-26.13-52.93-42.66-85.12-46.55c-4.76-0.57-9.55-0.86-14.25-0.86
	c-12.96,0-25.239,2.15-36.56,6.13c20.05-13.12,45.21-19.029,71.74-16.02C214.33,106.601,266.67,163.32,266.67,225.7z"/>
<path fill="#FFFFFF" d="M278.67,87.33V225.7c0-33.16-13.25-65.811-37.32-91.92c-24.02-26.061-55.979-42.55-90-46.42
	C104.2,82,60.86,102.19,38.24,140.061c-0.29,0.489-0.5,1.01-0.641,1.529c-10.85,11.42-19.21,25.38-24.369,41.17L14,85.14
	C17.28,63.75,26.05,46.53,40.08,33.69c0.63,0.21,1.3,0.319,2.01,0.31l183.36-2.66c2.649,0.57,14.97,3.48,27.02,11.03
	C269.86,53.24,278.67,68.37,278.67,87.33z"/>
<path fill="#FFFFFF" d="M88.61,205.01l66.46,4.37c-2.78,14.311-14.37,24.431-29.11,24.431c-1.33,0-2.689-0.091-4.05-0.25
	C106.51,231.7,93.39,219.851,88.61,205.01z"/>
<path fill="#FFFFFF" d="M154.57,193.311l-67.67-4.45c1.77-15.73,13.87-27.141,29.529-27.141c1.33,0,2.69,0.08,4.04,0.24
	C136.83,163.94,150.62,177.19,154.57,193.311z"/>
<path fill="#1D1D1B" d="M316,82.54c0.03,1.79,2.66,176.33,2,253.51c-0.36,43.021-23.99,66.681-43.75,78.96
	c-21.08,13.101-41.87,16.141-42.74,16.261c-0.279,0.04-0.56,0.06-0.84,0.06c-0.06,0-0.11,0-0.17,0
	c-0.94-0.03-94.84-2.729-154.29-7.35c-26.689-2.08-48.37-17.5-62.68-44.601C3,359.44,0.18,340.32,0.06,339.51
	C0.021,339.22,0,338.92,0,338.62l2-254c0.01-0.29,0.03-0.57,0.07-0.84c5.859-39.16,27.8-59.87,45.17-70.34
	C65.99,2.14,83.28,0.12,84.01,0.03C84.25,0.01,84.49,0,84.72,0l150.67,1.33c0.311,0,0.61,0.03,0.92,0.08
	C276.57,8,296.12,29.63,305.43,46.61C315.521,65.021,315.99,81.83,316,82.54z M306,335.95c0.66-77.04-1.97-251.44-2-253.2
	c0-0.09-0.49-14.93-9.34-30.82c-11.66-20.92-31.79-33.909-59.84-38.6L85.03,12c-2.061,0.29-14.41,2.28-28.21,9.78l169.1-2.45
	c0.39-0.01,0.771,0.03,1.16,0.1c0.64,0.11,15.96,2.98,31.42,12.551c21.04,13.029,32.17,32.18,32.17,55.35V356
	c0,0.09,0,0.17-0.01,0.26c-0.03,0.67-0.83,16.591-10.14,33.62c-2.101,3.83-4.74,7.9-8.04,11.92
	C294.49,386.34,305.76,364.21,306,335.95z M278.67,355.84V225.7V87.33c0-18.96-8.81-34.09-26.2-44.96
	c-12.05-7.55-24.37-10.46-27.02-11.03L42.09,34c-0.71,0.01-1.38-0.1-2.01-0.31C26.05,46.53,17.28,63.75,14,85.14l-0.77,97.62
	c5.159-15.79,13.52-29.75,24.369-41.17c0.141-0.52,0.351-1.04,0.641-1.529C60.86,102.19,104.2,82,151.35,87.36
	c34.021,3.87,65.98,20.359,90,46.42c24.07,26.109,37.32,58.76,37.32,91.92c0,40.34-28.88,89.47-64.38,109.52
	c-0.93,0.53-1.95,0.78-2.95,0.78c-0.45,0-0.89-0.06-1.33-0.16c-18.29,15.12-41.83,23.971-68.149,23.971c-4.7,0-9.49-0.29-14.24-0.87
	c-32.2-3.88-62.43-20.41-85.13-46.54c-14.04-16.17-24.17-34.82-29.851-54.55l-0.63,80.369c0.45,2.761,3.45,19.23,12.28,35.851
	c12.47,23.42,30.25,36.189,52.85,37.95c44.16,3.43,107.5,5.8,137.181,6.79c0.68-0.4,1.45-0.66,2.279-0.771
	C274.47,410.88,278.46,359.42,278.67,355.84z M239.58,296.36c15.51-20.07,27.09-46.13,27.09-70.66
	c0-62.38-52.34-119.1-116.68-126.42c-26.53-3.01-51.69,2.899-71.74,16.02c11.32-3.979,23.6-6.13,36.56-6.13
	c4.7,0,9.49,0.29,14.25,0.86c32.19,3.89,62.431,20.42,85.12,46.55c22.67,26.09,35.16,58.69,35.16,91.79
	C249.34,265.76,245.87,281.98,239.58,296.36z M141.86,347.811c54.43,0,95.479-42.75,95.479-99.44
	c0-62.41-49.22-119.12-109.72-126.42c-4.28-0.521-8.59-0.78-12.811-0.78c-54.43,0-95.47,42.75-95.47,99.44
	c0,62.399,49.22,119.12,109.72,126.42C133.34,347.54,137.64,347.811,141.86,347.811z"/>
<path fill="#FFFFFF" d="M278.67,225.7v130.14c-0.21,3.58-4.2,55.04-62.07,62.2c-0.829,0.11-1.6,0.37-2.279,0.771
	c-29.681-0.99-93.021-3.36-137.181-6.79c-22.6-1.761-40.38-14.53-52.85-37.95c-8.83-16.62-11.83-33.09-12.28-35.851l0.63-80.369
	C18.32,277.58,28.45,296.23,42.49,312.4c22.7,26.13,52.93,42.66,85.13,46.54c4.75,0.58,9.54,0.87,14.24,0.87
	c26.319,0,49.859-8.851,68.149-23.971c0.44,0.101,0.88,0.16,1.33,0.16c1,0,2.021-0.25,2.95-0.78
	C249.79,315.17,278.67,266.04,278.67,225.7z"/>
<path fill="#FFFFFF" d="M237.34,248.37c0,56.69-41.05,99.44-95.479,99.44c-4.221,0-8.521-0.271-12.801-0.78
	c-60.5-7.3-109.72-64.021-109.72-126.42c0-56.69,41.04-99.44,95.47-99.44c4.221,0,8.53,0.26,12.811,0.78
	C188.12,129.25,237.34,185.96,237.34,248.37z M125.96,245.811c23.8,0,41.75-18.561,41.75-43.16c0-25.95-20.54-49.55-45.8-52.601
	c-1.83-0.22-3.67-0.33-5.48-0.33c-23.81,0-41.76,18.551-41.76,43.15c0,25.96,20.55,49.55,45.8,52.6
	C122.3,245.69,124.15,245.811,125.96,245.811z"/>
<path fill="#1D1D1B" d="M167.71,202.65c0,24.6-17.95,43.16-41.75,43.16c-1.81,0-3.66-0.12-5.49-0.341
	c-25.25-3.05-45.8-26.64-45.8-52.6c0-24.6,17.95-43.15,41.76-43.15c1.811,0,3.65,0.11,5.48,0.33
	C147.17,153.101,167.71,176.7,167.71,202.65z M155.07,209.38l-66.46-4.37c4.779,14.841,17.899,26.69,33.3,28.551
	c1.36,0.159,2.72,0.25,4.05,0.25C140.7,233.811,152.29,223.69,155.07,209.38z M86.9,188.86l67.67,4.45
	c-3.95-16.12-17.74-29.37-34.101-31.351c-1.35-0.16-2.71-0.24-4.04-0.24C100.771,161.72,88.67,173.13,86.9,188.86z"/>
</svg>
