<svg xmlns="http://www.w3.org/2000/svg" viewBox="0 0 389.29 548"><defs><style>.cls-1{fill:#fff;}.cls-2{fill:#1d1d1b;}</style></defs><title>icon-subcategory-morticelock</title><g id="Слой_2" data-name="Слой 2"><g id="Слой_1-2" data-name="Слой 1"><polygon class="cls-1" points="348.57 41.42 154.59 82.08 154.59 73.87 333.44 39.41 348.57 41.42"/><path class="cls-1" d="M315.5,292.33c2.19,2.22,3.36,5.74,3.29,9.92-.11,7.49-4.2,15.83-10.41,21.26a6,6,0,0,0-2,4.42l-.76,49.59a6.27,6.27,0,0,1-3.65,5.27l-5,1.55v-.21l.75-49.59a6,6,0,0,0-4.48-5.9c-4.68-1.21-7.41-5.78-7.31-12.22.16-11,8.68-22.93,18.6-26a14.58,14.58,0,0,1,4.33-.71A9.08,9.08,0,0,1,315.5,292.33Z"/><path class="cls-1" d="M376.68,47.79a14,14,0,0,1,.59,5.27c-.66,14.43-4.43,323.06-4.67,343-.36,1.54-2.11,7.74-7.18,8.75C355.81,406.71,188.14,462,154.59,473V94.34ZM330.79,302.43c.12-7.42-2.28-14-6.74-18.52a21.13,21.13,0,0,0-15.21-6.22,26.56,26.56,0,0,0-7.9,1.25c-14.91,4.65-26.78,21-27,37.3-.15,10,4.33,18.3,11.73,22.25L285,383.94a12.66,12.66,0,0,0,3.45,9.21,11.2,11.2,0,0,0,8.05,3.31,13.24,13.24,0,0,0,3.89-.6l5.15-1.61c6.78-2.11,12-9.22,12.08-16.55l.72-47C325.91,323.06,330.64,312.47,330.79,302.43Z"/><path class="cls-1" d="M24.8,346.49a11,11,0,0,1,2.38.26c9.74,2.07,18.08,15.33,18.22,29,.07,6.81-1.9,12.75-5.42,16.31a10.14,10.14,0,0,1-9.71,3c-9.76-2-18.13-15.29-18.27-29-.07-6.81,1.9-12.75,5.42-16.31a10.19,10.19,0,0,1,7-3.21v.05l.35-.07Z"/><path class="cls-1" d="M117.36,353.12c.26,1.7,3,21.82-10.8,25-11.67,2.73-34.68,8.23-51.7,12.31a39.79,39.79,0,0,0,2.54-14.87c-.13-12.89-5.5-25-13.57-32.75l57.94-11.09.66-.3a5.7,5.7,0,0,1,4,.53C109,333.29,114,337.79,117.36,353.12Z"/><path class="cls-1" d="M117.36,264.45c.26,1.71,3,21.82-10.8,25-11.67,2.72-34.68,8.22-51.7,12.3a39.76,39.76,0,0,0,2.54-14.87c-.13-12.89-5.5-25.05-13.57-32.75l57.94-11.08.66-.3a5.6,5.6,0,0,1,4,.52C109,244.63,114,249.12,117.36,264.45Z"/><path class="cls-1" d="M24.8,257.82a11.63,11.63,0,0,1,2.38.26c9.74,2.07,18.08,15.34,18.22,29,.07,6.81-1.9,12.76-5.42,16.31a10.17,10.17,0,0,1-9.71,3c-9.76-2-18.13-15.3-18.27-29-.07-6.82,1.9-12.76,5.42-16.31a10.2,10.2,0,0,1,7-3.22v.05l.35-.07Z"/><path class="cls-1" d="M142.59,23.23V534.36L69.93,516.62V399.19c14.56-3.48,30.35-7.25,39.36-9.35,20.17-4.71,21.83-27.47,19.88-38.85l-.05-.28c-3.41-15.51-9.26-25.43-17.37-29.47a17.44,17.44,0,0,0-13.45-1l-29.71,5.68v-15c14.93-3.57,31.41-7.5,40.7-9.67,20.17-4.7,21.83-27.47,19.88-38.85l-.05-.28c-3.41-15.51-9.26-25.42-17.37-29.47a17.44,17.44,0,0,0-13.45-1l-29.71,5.69V223.51c14.93-3.57,31.41-7.5,40.7-9.67,20.17-4.71,21.83-27.47,19.88-38.85l-.05-.28c-3.41-15.51-9.26-25.43-17.37-29.47a17.44,17.44,0,0,0-13.45-1l-31.71,6.06V12.87Z"/><path class="cls-1" d="M117.36,177.12c.26,1.7,3,21.82-10.8,25-11.67,2.73-34.68,8.23-51.7,12.31a39.79,39.79,0,0,0,2.54-14.87c-.13-12.89-5.5-25.05-13.57-32.75l57.94-11.09.66-.3a5.7,5.7,0,0,1,4,.53C109,157.29,114,161.79,117.36,177.12Z"/><path class="cls-1" d="M24.8,170.49a11,11,0,0,1,2.38.26c9.74,2.07,18.08,15.33,18.22,29,.07,6.81-1.9,12.75-5.42,16.31a10.14,10.14,0,0,1-9.71,3c-9.76-2-18.13-15.29-18.27-29-.07-6.81,1.9-12.75,5.42-16.31a10.19,10.19,0,0,1,7-3.21v.05l.35-.07Z"/><path class="cls-2" d="M324.05,283.91c4.46,4.52,6.86,11.1,6.74,18.52-.15,10-4.88,20.63-12.5,28.23l-.72,47c-.11,7.33-5.3,14.44-12.08,16.55l-5.15,1.61a13.27,13.27,0,0,1-3.89.6,11.2,11.2,0,0,1-8.05-3.31,12.66,12.66,0,0,1-3.45-9.21l.69-45.45c-7.4-4-11.88-12.2-11.73-22.25.25-16.27,12.12-32.65,27-37.3a26.56,26.56,0,0,1,7.9-1.25A21.13,21.13,0,0,1,324.05,283.91Zm-5.26,18.34c.07-4.18-1.1-7.7-3.29-9.92a9.08,9.08,0,0,0-6.66-2.64,14.58,14.58,0,0,0-4.33.71c-9.92,3.09-18.44,15-18.6,26-.1,6.44,2.63,11,7.31,12.22a6,6,0,0,1,4.48,5.9L297,384.13v.21l5-1.55a6.27,6.27,0,0,0,3.65-5.27l.76-49.59a6,6,0,0,1,2-4.42C314.59,318.08,318.68,309.74,318.79,302.25Z"/><path class="cls-2" d="M24.74,346.49l-.35.07v-.05a10.19,10.19,0,0,0-7,3.21c-3.52,3.56-5.49,9.5-5.42,16.31.14,13.68,8.51,26.94,18.27,29A10.14,10.14,0,0,0,40,392c3.52-3.56,5.49-9.5,5.42-16.31-.14-13.63-8.48-26.89-18.22-29a11,11,0,0,0-2.38-.26Zm0-88.67-.35.07v-.05a10.19,10.19,0,0,0-7,3.22c-3.52,3.55-5.49,9.49-5.42,16.31.14,13.67,8.51,26.94,18.27,29a10.17,10.17,0,0,0,9.71-3c3.52-3.55,5.49-9.5,5.42-16.31-.14-13.62-8.48-26.89-18.22-29a11.63,11.63,0,0,0-2.38-.26Zm0-87.33-.35.07v-.05a10.19,10.19,0,0,0-7,3.21c-3.52,3.56-5.49,9.5-5.42,16.31.14,13.68,8.51,26.94,18.27,29A10.14,10.14,0,0,0,40,216c3.52-3.56,5.49-9.5,5.42-16.31-.14-13.63-8.48-26.89-18.22-29a11,11,0,0,0-2.38-.26ZM384.25,37.57c3.63,3.79,5.31,9.19,5,16-.65,14.4-4.62,339.85-4.66,343.14a5.61,5.61,0,0,1-.08.91c-1,6-5.64,16.68-16.74,18.9-7.07,1.41-131.31,42.08-213.18,69.11V542a6,6,0,0,1-2.29,4.72,6.07,6.07,0,0,1-3.71,1.28,6.26,6.26,0,0,1-1.42-.17L62.5,527.16a6,6,0,0,1-4.57-5.83V402.06l-21.27,5.1-.07-.28a21.94,21.94,0,0,1-4,.37,23.57,23.57,0,0,1-4.77-.5C12.42,403.55.2,385.72,0,366.15c-.11-10.13,3-19,8.89-24.87a22.05,22.05,0,0,1,14.31-6.71l33.39-6.39V313.71L36.66,318.5l-.07-.29a21.94,21.94,0,0,1-4,.38,23.57,23.57,0,0,1-4.77-.5C12.42,314.88.2,297.05,0,277.49c-.11-10.14,3-19,8.89-24.87A22.07,22.07,0,0,1,23.2,245.9l33.39-6.39V226.38l-19.93,4.78-.07-.28a21.93,21.93,0,0,1-4,.37,23.57,23.57,0,0,1-4.77-.5C12.42,227.55.2,209.72,0,190.15c-.11-10.13,3-19,8.89-24.87a22.05,22.05,0,0,1,14.31-6.71l31.39-6V6a6,6,0,0,1,6.81-6l88,12a6,6,0,0,1,5.19,6V61.65L332.12,27.44a6.25,6.25,0,0,1,1.93-.06l39.76,5.3A16.17,16.17,0,0,1,384.25,37.57Zm-7,15.49a14,14,0,0,0-.59-5.27L154.59,94.34V473C188.14,462,355.81,406.7,365.42,404.78c5.07-1,6.82-7.21,7.18-8.75C372.84,376.12,376.61,67.49,377.27,53.06Zm-222.68,29,194-40.66-15.13-2L154.59,73.87Zm-12,452.28V23.23l-76-10.36V150.26L98.3,144.2a17.45,17.45,0,0,1,13.45,1c8.11,4,14,14,17.37,29.47l.05.28c1.95,11.38.29,34.14-19.88,38.85-9.29,2.17-25.77,6.1-40.7,9.67v13.71l29.71-5.69a17.45,17.45,0,0,1,13.45,1c8.11,4.05,14,14,17.37,29.47l.05.28c1.95,11.38.29,34.15-19.88,38.85-9.29,2.17-25.77,6.1-40.7,9.67v15l29.71-5.68a17.45,17.45,0,0,1,13.45,1c8.11,4,14,14,17.37,29.47l.05.28c1.95,11.38.29,34.14-19.88,38.85-9,2.1-24.8,5.87-39.36,9.35V516.63Zm-36-332.21c13.8-3.21,11.06-23.33,10.8-25-3.4-15.33-8.32-19.83-11-21.14a5.7,5.7,0,0,0-4-.53l-.66.3L43.83,166.84c8.07,7.7,13.44,19.86,13.57,32.75a39.79,39.79,0,0,1-2.54,14.87C71.88,210.38,94.89,204.88,106.56,202.15Zm0,87.34c13.8-3.22,11.06-23.33,10.8-25-3.4-15.33-8.32-19.82-11-21.14a5.61,5.61,0,0,0-4-.52l-.66.3L43.83,254.17c8.07,7.7,13.44,19.86,13.57,32.75a39.76,39.76,0,0,1-2.54,14.87C71.88,297.71,94.89,292.21,106.56,289.49Zm0,88.66c13.8-3.21,11.06-23.33,10.8-25-3.4-15.33-8.32-19.83-11-21.14a5.7,5.7,0,0,0-4-.53l-.66.3L43.83,342.84c8.07,7.7,13.44,19.86,13.57,32.75a39.79,39.79,0,0,1-2.54,14.87C71.88,386.38,94.89,380.88,106.56,378.15Z"/></g></g></svg>