<svg xmlns="http://www.w3.org/2000/svg" viewBox="0 0 777.56 454.07"><defs><style>.cls-1{fill:#fff;}.cls-2{fill:#1d1d1b;}</style></defs><title>icon-subcategory-overhead</title><g id="Слой_2" data-name="Слой 2"><g id="Слой_1-2" data-name="Слой 1"><path class="cls-1" d="M630.68,296.65c.27-45.26-35.24-87.62-79.16-94.43a79.35,79.35,0,0,0-11.81-.94,68.58,68.58,0,0,1,22.63-.39c39.27,5.85,71.22,43.6,71.22,84.15a69.41,69.41,0,0,1-3.55,22.2,6.79,6.79,0,0,0,0-.9A85.37,85.37,0,0,0,630.68,296.65Z"/><path class="cls-1" d="M563,351.13a128.05,128.05,0,0,0,29.16-3.25c-11.85,7.62-26.33,10.52-41.57,8.16a75.55,75.55,0,0,1-27.56-10.23A157.94,157.94,0,0,0,563,351.13Z"/><path class="cls-1" d="M601.91,332.4c-7.86,3-21.07,6.73-38.89,6.73-30.06,0-62-10.26-94.81-30.49-1-4.3-2.82-15.85,1.26-32.1C485.58,280.1,561.11,298.18,601.91,332.4Z"/><path class="cls-1" d="M617.39,307.08l-6.63,17.08c-40.88-35.08-113.22-53.58-135.46-58.63l11.21-16.66C504.28,251.1,589.81,264.06,617.39,307.08Z"/><path class="cls-1" d="M549.68,214.07c35.8,5.56,65.18,38.29,68.65,74.86-15.61-16.56-40.29-30-73.66-40a360.7,360.7,0,0,0-52.28-11.38C504.83,219.38,526.37,210.46,549.68,214.07Z"/><path class="cls-1" d="M765.56,193.87,752.71,384.6C749,389,738,401.79,727.85,414.21c3-43.94,10.13-150,11.7-175.85,1.82-30-24.41-44.65-38.53-48.18l-.26-.06L342.84,116.79l75.08-56.31,14.27,3.36c9.57,2.25,8.3,23.64,7.44,29.23a6,6,0,0,0,4.85,6.83c2.61.48,261.67,48,292.67,61.6C763.94,173.21,765.47,192,765.56,193.87Z"/><path class="cls-1" d="M323,213.75l.14,33.36-48.37-9.5a4,4,0,0,0-1.33-.11c-1.4-.06-7.35-1-8.35-13-1.3-15.55,7.77-18.77,10.94-19.41Z"/><path class="cls-1" d="M322.7,154.21l.14,33.35-48.12-9.45a4,4,0,0,0-1.33-.11c-1.4-.06-7.35-1-8.35-13-1.3-15.55,7.77-18.77,10.94-19.41Z"/><path class="cls-1" d="M713.78,209.47c9.85,7.18,14.49,16.66,13.79,28.17-1.86,30.7-11.65,175.05-12.87,193.1-8.69,10.76-14.9,11.33-16.1,11.33h0l-363-88.78-.95-225.93c51.09,10.45,354.93,72.71,363.6,74.48A52.7,52.7,0,0,1,713.78,209.47ZM609,350.42c22.88-12.64,36.54-37.08,36.54-65.38,0-46.25-36.54-89.33-81.45-96-30.18-4.49-60.19,8.51-74.68,32.37a5.49,5.49,0,0,0-.62,1.43,69.41,69.41,0,0,0-9.23,12.5,6,6,0,0,0-.77,3.54c-.08.1-.16.19-.23.29l-18.5,27.5a5.84,5.84,0,0,0-.75,1.59c-8.5,27.6-2.18,45.56-1.91,46.31a6,6,0,0,0,2.45,3,257,257,0,0,0,32.81,17.55,5.71,5.71,0,0,0,.68,1c14.83,17.27,34.51,28.56,55.41,31.81a80.28,80.28,0,0,0,12.17.95,68.45,68.45,0,0,0,45-16.22c.65-.55,1.27-1.13,1.9-1.71A5.9,5.9,0,0,0,609,350.42Z"/><path class="cls-1" d="M193.39,13.62l-85.89,51-67.88-14C54.37,43.12,70.11,35,75.43,32.3l56.93,11.58a6,6,0,0,0,4.3-.74l51-30.77Z"/><path class="cls-1" d="M102.73,75.92l7.68,224.83L37.27,282.24c-1.7-.62-20.71-8.32-20.71-40.24,0-47.61-4-148.23-4-149.24a6.36,6.36,0,0,0-.08-.75c0-.24-3.78-23.84,10.08-32.68Z"/><path class="cls-1" d="M215.62,184.85c.05.32,4.26,32.06-20,53.67-20.59,18.3-57.48,47.53-73.23,59.9L114.68,74.34l94.35-56c2.05,3.1,5.53,11.49,5.53,32.71,0,37.6,1,132.11,1,133.06A5,5,0,0,0,215.62,184.85Zm-47.06-.35v-78c0-12.75-7.37-17.28-13.68-17.28-4.05,0-8.27,1.71-12.53,5.07-10.54,8.3-18.79,25.08-18.79,38.21v78c0,12.75,7.37,17.28,13.68,17.28,4.05,0,8.27-1.71,12.53-5.07C160.31,214.41,168.56,197.63,168.56,184.5Z"/><path class="cls-2" d="M777.56,194c0,.13,0,.27,0,.4l-13,193a6,6,0,0,1-1.45,3.52c-.24.29-25,29.06-37.77,45.72-5.8,7.58-11.23,11.94-15.84,14.4a23.21,23.21,0,0,1-10.89,3,11.41,11.41,0,0,1-2.21-.19l-.26,0-368-90a6,6,0,0,1-4.57-5.8l-.41-98.68L273,249.5c-6.64-.16-18.34-5.24-19.9-24-2-23.61,13.76-31.56,22.35-32.47a6.21,6.21,0,0,1,1.72.07l45.75,8.44V199.8L273,190c-6.64-.16-18.34-5.24-19.9-24-2-23.61,13.76-31.56,22.35-32.47a6.21,6.21,0,0,1,1.72.07l45.5,8.39-.09-21.93a5.57,5.57,0,0,1,0-.7,1.38,1.38,0,0,1,0-.2,2.15,2.15,0,0,1,.05-.34s0-.07,0-.11l.06-.23c0-.14.08-.28.13-.41s.05-.14.07-.21.12-.29.18-.42l.09-.18a3.81,3.81,0,0,1,.25-.44l.07-.12a5.85,5.85,0,0,1,.84-1l.15-.13.33-.29.09-.07,88-66a6,6,0,0,1,5-1l17,4c15.43,3.63,18.19,22.85,17.21,37C491.06,96.29,711.92,137.36,742,150.5,777.16,165.9,777.56,192.86,777.56,194ZM752.71,384.6l12.85-190.73c-.09-1.9-1.62-20.66-28.41-32.37-31-13.57-290.06-61.12-292.67-61.6a6,6,0,0,1-4.85-6.83c.86-5.59,2.13-27-7.44-29.23l-14.27-3.36-75.08,56.31,357.92,73.33.26.06c14.12,3.53,40.35,18.15,38.53,48.18-1.57,25.84-8.73,131.91-11.7,175.85C738,401.79,749,389,752.71,384.6Zm-25.14-147c.7-11.51-3.94-21-13.79-28.17a52.65,52.65,0,0,0-15.59-7.63c-8.67-1.77-312.51-64-363.6-74.48l.95,225.93,363,88.78h0c1.2,0,7.41-.57,16.1-11.33C715.92,412.69,725.71,268.34,727.57,237.64Zm-404.48,9.47L323,213.75l-47-8.66c-3.17.64-12.24,3.86-10.94,19.41,1,12,6.95,12.94,8.35,13a4,4,0,0,1,1.33.11Zm-.25-59.55-.14-33.35L276,145.59c-3.17.64-12.24,3.86-10.94,19.41,1,12,6.95,12.94,8.35,13a4,4,0,0,1,1.33.11Z"/><path class="cls-2" d="M645.56,285c0,28.3-13.66,52.74-36.54,65.38a5.9,5.9,0,0,1-1.23.5c-.63.58-1.25,1.16-1.9,1.71a68.45,68.45,0,0,1-45,16.22,80.28,80.28,0,0,1-12.17-.95c-20.9-3.25-40.58-14.54-55.41-31.81a5.76,5.76,0,0,1-.68-1,257,257,0,0,1-32.81-17.55,6,6,0,0,1-2.45-3c-.27-.75-6.59-18.71,1.91-46.31a5.84,5.84,0,0,1,.75-1.59l18.5-27.5c.07-.1.15-.19.23-.29a6,6,0,0,1,.77-3.54,69.46,69.46,0,0,1,9.23-12.5,5.51,5.51,0,0,1,.62-1.43c14.49-23.86,44.5-36.86,74.68-32.37C609,195.71,645.56,238.79,645.56,285ZM630,307.24a69.44,69.44,0,0,0,3.55-22.2c0-40.55-32-78.3-71.22-84.15a68.58,68.58,0,0,0-22.63.39,79.49,79.49,0,0,1,11.81.94c43.92,6.81,79.43,49.17,79.16,94.43a85.61,85.61,0,0,1-.63,9.69A6.78,6.78,0,0,1,630,307.24Zm-19.25,16.92,6.63-17.08c-27.58-43-113.11-56-130.88-58.21L475.3,265.53C497.54,270.58,569.88,289.08,610.76,324.16Zm7.57-35.23c-3.47-36.57-32.85-69.3-68.65-74.86-23.31-3.61-44.85,5.31-57.29,23.43a360.69,360.69,0,0,1,52.28,11.38C578,258.93,602.72,272.37,618.33,288.93ZM563,339.13c17.82,0,31-3.69,38.89-6.73-40.8-34.22-116.33-52.3-132.44-55.86-4.08,16.25-2.26,27.8-1.26,32.1C501.07,328.87,533,339.13,563,339.13Zm29.16,8.75A128.05,128.05,0,0,1,563,351.13a157.94,157.94,0,0,1-40-5.32A75.53,75.53,0,0,0,550.61,356C565.85,358.4,580.33,355.5,592.18,347.88Z"/><path class="cls-2" d="M227.56,183.58c.54,4.49,3.73,39.24-24,63.9-26.84,23.86-80.76,65.83-81.31,66.26a6,6,0,0,1-3.68,1.26,6.1,6.1,0,0,1-1.47-.18l-83-21-.36-.11C32.54,293.33,4.56,283.9,4.56,242c0-46-3.73-141.93-4-148.42C0,89.49-3.66,59.09,18.69,47.74l.11-.07.08,0c19.73-9.87,52.6-26.79,52.93-27a6,6,0,0,1,3.95-.55l56.7,11.53,51-30.79a6,6,0,0,1,4.37-.72l23,5,.17,0h.07c1.71.44,5.83,2.14,9.31,8.78,4.1,7.83,6.18,20.29,6.18,37C226.56,87.37,227.49,177.19,227.56,183.58Zm-32,54.94c24.31-21.61,20.1-53.35,20.05-53.67a5.16,5.16,0,0,1-.06-.79c0-.95-1-95.46-1-133.06,0-21.22-3.48-29.61-5.53-32.71l-94.35,56,7.66,224.08C138.09,286.05,175,256.82,195.57,238.52ZM107.5,64.65l85.89-51-5.77-1.25-51,30.77a6,6,0,0,1-4.3.74L75.43,32.3C70.11,35,54.37,43.12,39.62,50.61Zm2.91,236.1L102.73,75.92,22.56,59.33C8.7,68.17,12.44,91.77,12.48,92a6.36,6.36,0,0,1,.08.75c0,1,4,101.63,4,149.24,0,31.92,19,39.62,20.71,40.24Z"/><path class="cls-2" d="M168.56,106.5v78c0,13.13-8.25,29.91-18.79,38.21-4.26,3.36-8.48,5.07-12.53,5.07-6.31,0-13.68-4.53-13.68-17.28v-78c0-13.13,8.25-29.91,18.79-38.21,4.26-3.36,8.48-5.07,12.53-5.07C161.19,89.22,168.56,93.75,168.56,106.5Zm-12,78v-78c0-2.56-.59-5.28-1.68-5.28-.45,0-2.17.18-5.11,2.49-7.7,6.07-14.21,19.26-14.21,28.79v78c0,2.56.59,5.28,1.68,5.28.45,0,2.17-.18,5.11-2.49C150.05,207.22,156.56,194,156.56,184.5Z"/></g></g></svg>