<?xml version="1.0" encoding="utf-8"?>
<!-- Generator: Adobe Illustrator 15.1.0, SVG Export Plug-In . SVG Version: 6.00 Build 0)  -->
<!DOCTYPE svg PUBLIC "-//W3C//DTD SVG 1.1//EN" "http://www.w3.org/Graphics/SVG/1.1/DTD/svg11.dtd">
<svg version="1.1" id="Слой_1" xmlns="http://www.w3.org/2000/svg" xmlns:xlink="http://www.w3.org/1999/xlink" x="0px" y="0px"
	 width="325.5px" height="479.44px" viewBox="0 0 325.5 479.44" enable-background="new 0 0 325.5 479.44" xml:space="preserve">
<path fill="#FFFFFF" d="M286.74,148.88l1.311,41.28c-0.75,1.02-5.66,6.1-28.761,6.53c-1.029,0.02-2.029,0.03-3.01,0.03
	c-20.2,0-25.74-4.12-26.88-5.26v-47.43c0-0.27-0.01-0.53-0.05-0.79c-8.25-62.57-42.7-75.7-70.15-75.7c-1.79,0-3.63,0.06-5.479,0.16
	c-29.78,1.74-44.82,17.64-52.2,30.68c-7.87,13.92-8.74,27.4-8.771,27.96c-0.01,0.12-0.01,0.24-0.01,0.35v47.95
	c-8.41,3.15-17.03,4.75-25.68,4.75c-10.92,0-19.311-2.58-23.42-4.15C37.351,117.45,46.75,74,71.59,46.05
	C98.9,15.32,137.2,12,152.4,12c0.78,0,1.51,0.01,2.2,0.03c55.229,1.28,94.2,24.43,115.84,68.79c16.39,33.61,16.3,67.48,16.3,67.81
	C286.74,148.72,286.74,148.8,286.74,148.88z"/>
<path fill="#FFFFFF" d="M58.74,190.97l-0.29,2.68c-19.13-1.99-34.26-3.64-43.09-4.62l17.67-6.42c0.56,0.85,1.32,1.57,2.25,2.06
	C35.721,184.91,44.681,189.53,58.74,190.97z"/>
<path fill="#FFFFFF" d="M259.521,208.69c18.76-0.35,31.229-3.73,37.069-10.04c0.25-0.27,0.49-0.55,0.711-0.83
	c2.229,0.34,4.279,0.66,6.159,0.96l-19.77,13.18c-11.05-0.44-22.87-1.06-35.18-1.81l0.1-1.64c2.37,0.14,4.92,0.21,7.67,0.21
	C257.33,208.72,258.41,208.71,259.521,208.69z"/>
<path fill="#FFFFFF" d="M248.61,208.51l-0.1,1.64c-63.66-3.87-140.37-11.32-190.061-16.5l0.29-2.68c2.61,0.26,5.39,0.42,8.32,0.42
	c11.54,0,23-2.42,34.05-7.19c2.19-0.94,3.61-3.1,3.62-5.48c38.91,2.29,76.75,5.34,112.67,9.08v4.89c0,0.13,0.01,0.25,0.02,0.38
	C217.63,196.45,220.61,206.9,248.61,208.51z"/>
<path fill="#FFFFFF" d="M313.19,206.71l-4.4,239.679l-26.68,20.891C124.261,460.82,35.63,439.37,16,434.12l-3.699-233.36
	c33.51,3.73,180.949,19.75,272.869,23.26l1.95,0.08L313.19,206.71z"/>
<path fill="#1D1D1B" d="M325.5,190.39l-4.819,261.941l-34.65,27.109l-2.2-0.08c-182.649-7.279-274.6-34.65-275.5-34.93l-4.189-1.271
	L0,181.85l31.12-11.32c-5.359-58.33,5.21-102.87,31.5-132.45C93.16,3.71,135.58,0,152.4,0c0.88,0,1.71,0.01,2.479,0.03
	c75.051,1.74,110.24,42.25,126.54,75.93c17.12,35.36,17.33,69.84,17.32,72.66l1.19,37.46c13.3,2.03,20.26,3.32,20.569,3.38
	L325.5,190.39z M308.79,446.389l4.4-239.679l-26.07,17.39l-1.95-0.08c-91.92-3.51-239.359-19.53-272.869-23.26L16,434.12
	c19.63,5.25,108.261,26.7,266.11,33.16L308.79,446.389z M283.69,211.96l19.77-13.18c-1.88-0.3-3.93-0.62-6.159-0.96
	c-0.221,0.28-0.461,0.56-0.711,0.83c-5.84,6.31-18.31,9.69-37.069,10.04c-1.11,0.02-2.19,0.03-3.24,0.03c-2.75,0-5.3-0.07-7.67-0.21
	c-28-1.61-30.98-12.06-31.19-15.44c-0.01-0.13-0.02-0.25-0.02-0.38v-4.89c-35.92-3.74-73.76-6.79-112.67-9.08
	c-0.01,2.38-1.43,4.54-3.62,5.48c-11.05,4.77-22.51,7.19-34.05,7.19c-2.931,0-5.71-0.16-8.32-0.42c-14.06-1.44-23.02-6.06-23.46-6.3
	c-0.93-0.49-1.69-1.21-2.25-2.06l-17.67,6.42c8.83,0.98,23.96,2.63,43.09,4.62c49.69,5.18,126.4,12.63,190.061,16.5
	C260.82,210.9,272.641,211.52,283.69,211.96z M288.051,190.16l-1.311-41.28c0-0.08,0-0.16,0-0.25c0-0.33,0.09-34.2-16.3-67.81
	c-21.64-44.36-60.61-67.51-115.84-68.79c-0.69-0.02-1.42-0.03-2.2-0.03c-15.2,0-53.5,3.32-80.811,34.05
	C46.75,74,37.351,117.45,43.641,175.24c4.109,1.57,12.5,4.15,23.42,4.15c8.649,0,17.27-1.6,25.68-4.75v-47.95
	c0-0.11,0-0.23,0.01-0.35c0.03-0.56,0.9-14.04,8.771-27.96c7.38-13.04,22.42-28.94,52.2-30.68c1.85-0.1,3.689-0.16,5.479-0.16
	c27.45,0,61.9,13.13,70.15,75.7c0.04,0.26,0.05,0.52,0.05,0.79v47.43c1.14,1.14,6.68,5.26,26.88,5.26c0.98,0,1.98-0.01,3.01-0.03
	C282.391,196.26,287.301,191.18,288.051,190.16z M217.4,175.74v-31.32c-6.12-45.69-26.71-66.84-62.98-64.74
	c-45.38,2.64-49.43,43.85-49.68,47.22v39.8C143.62,168.97,181.45,172.01,217.4,175.74z"/>
</svg>
