<?xml version="1.0" encoding="utf-8"?>
<!-- Generator: Adobe Illustrator 15.1.0, SVG Export Plug-In . SVG Version: 6.00 Build 0)  -->
<!DOCTYPE svg PUBLIC "-//W3C//DTD SVG 1.1//EN" "http://www.w3.org/Graphics/SVG/1.1/DTD/svg11.dtd">
<svg version="1.1" id="Слой_1" xmlns="http://www.w3.org/2000/svg" xmlns:xlink="http://www.w3.org/1999/xlink" x="0px" y="0px"
	 width="384.673px" height="478.028px" viewBox="0 0 384.673 478.028" enable-background="new 0 0 384.673 478.028"
	 xml:space="preserve">
<path fill="#1D1D1B" d="M376.933,9.978c5.061,4.521,7.74,10.7,7.74,17.87c0,25.13-10.229,387.43-10.67,402.84
	c-0.01,0.68-0.15,1.351-0.39,1.99c-2.511,6.51-10.4,16.87-24.04,16.87c-1.54,0-3.17-0.15-4.86-0.44c-0.02,2.49-0.04,3.92-0.04,4.13
	c0,0.65-0.11,1.301-0.33,1.91c-0.29,0.86-7.47,21.01-25.79,22.68c-1.49,0.131-3.17,0.2-5,0.2c-16.99,0-53.38-6.26-57.42-25.62
	c-3.01-14.47-5.82-150.859-6.61-191.909c-13.47,6.72-40.55,17.96-70.93,17.96c-15.77,0-30.49-3.08-43.75-9.15
	c-46.41-21.25-93.49-42.11-114.55-43.47c-11.16-0.721-19.08-6.7-20.16-15.24c-1.63-12.81,11.83-25.19,36.01-33.11
	c7.92-2.6,16.011-3.92,24.051-3.92c27.659,0,50.96,15.41,69.68,27.79c3.26,2.16,6.34,4.2,9.34,6.09
	c21.87,13.811,42.38,20.82,60.96,20.82c17.18,0,32.91-6.07,46.8-18.05c0.15-4.771-0.13-17.4-0.68-34.391
	c-1.98-0.13-3.85-1.22-4.87-3.09c-0.81-1.46-4.28-5.31-19.03-9.3c-10.3-2.79-22.399-4.64-31.239-6c-4.15-0.64-7.73-1.189-10.32-1.7
	c-5.44-1.09-8.86-4.979-8.91-10.16c-0.13-11.739,19.09-29.949,35.45-33.579c14.16-3.15,29.06,0.63,36.64,3.14
	c-1.069-26.021-2.27-53.29-3.33-76.29c-0.56-8.97,4.59-26.34,28.16-28.31c3.15-0.261,6.63-0.391,10.37-0.391
	c2.24,0,4.52,0.04,6.81,0.13c0.051-1.26,0.48-2.51,1.341-3.56c2.409-2.94,12.149-9.33,50.63-5.561
	C342.732,0.688,364.813-0.822,376.933,9.978z M372.673,27.848c0-3.81-1.18-6.64-3.729-8.91c-7.551-6.729-24.391-6.46-30.25-5.79
	c-0.421,0.05-0.86,0.05-1.28,0.01c-12.71-1.27-21.69-1.34-27.96-0.93c10.31,1.25,18.21,2.67,19.99,3
	c1.909,0.17,6.779,1.08,11.27,5.76c6.35,6.61,9.25,17.75,8.62,33.11c-1.15,28.24-3.84,311.21-4.51,382.78
	c11.069,2.89,15.89-4.88,17.22-7.681C362.693,406.178,372.673,52.118,372.673,27.848z M337.343,53.608
	c0.82-19.92-5.3-25.95-8.77-26.42c-0.45,0.04-0.511-0.01-1.011-0.11c-0.26-0.05-26.449-4.93-48.35-4.93c-3.4,0-6.56,0.12-9.37,0.351
	c-16.97,1.409-17.29,13.31-17.18,15.68c0.03,0.5,2.02,43.8,3.75,86.76c1.01,25.25,1.74,45.44,2.16,60.03
	c0.13,4.6,0.229,8.5,0.31,11.82l5.91-6.86c0.41-0.45,9.51-10.74,22.82-10.88c8.649-0.07,16.79,3.979,24.17,12.1
	c13.1,14.41,10.6,32.84,2.31,44.72c-8.29,11.87-21.52,16.811-33.1,12.431c-1.09-0.101-6.84-0.26-19.59,5.38
	c0.979,53.46,3.89,183.87,6.479,196.28c1.8,8.659,26.62,16.069,45.67,16.069c1.46,0,2.78-0.05,3.91-0.149
	c9.04-0.82,13.96-10.891,15.22-13.86C332.923,425.749,336.053,85.418,337.343,53.608z M304.253,228.999
	c5.15-7.381,7.89-19.61-1.35-29.78c-4.931-5.42-9.98-8.17-15.011-8.17c-0.05,0-0.1,0-0.149,0c-7.86,0.09-13.82,6.68-13.88,6.74
	l-15.931,18.489c-0.3,0.5-0.68,0.86-1.14,1.271c-0.03,0.029-0.061,0.05-0.09,0.08c-16.57,15.02-35.59,22.64-56.53,22.64
	c-20.88,0-43.55-7.63-67.37-22.68c-3.1-1.96-6.229-4.03-9.55-6.221c-18.28-12.09-39.01-25.8-63.06-25.8
	c-6.771,0-13.601,1.12-20.311,3.32c-21.42,7.02-28.39,15.93-27.85,20.2c0.319,2.529,3.949,4.45,9.029,4.779
	c20.94,1.351,59.41,17.351,118.78,44.53c11.68,5.351,24.72,8.061,38.75,8.061c29.48,0,56.19-11.87,67.67-17.78
	c0.55-0.89,1.34-1.65,2.34-2.16c23.73-12.21,33.53-10.5,35.971-9.69c0.12,0.04,0.239,0.08,0.359,0.131
	C292.853,240.178,300.283,234.678,304.253,228.999z M245.763,160.358c-0.359-9.99-0.77-20.899-1.229-32.24
	c-0.08-0.029-0.16-0.06-0.24-0.09c-0.311-0.14-18.55-7.819-34.32-4.319c-11.689,2.6-23.76,15.17-25.77,20.46
	c2.27,0.409,5.319,0.88,8.77,1.409C214.703,148.908,235.003,152.638,245.763,160.358z"/>
<path fill="#FFFFFF" d="M368.943,18.938c2.55,2.271,3.729,5.101,3.729,8.91c0,24.27-9.979,378.33-10.63,401.35
	c-1.33,2.801-6.15,10.57-17.22,7.681c0.67-71.57,3.359-354.54,4.51-382.78c0.63-15.36-2.271-26.5-8.62-33.11
	c-4.49-4.68-9.36-5.59-11.27-5.76c-1.78-0.33-9.681-1.75-19.99-3c6.27-0.41,15.25-0.34,27.96,0.93c0.42,0.04,0.859,0.04,1.28-0.01
	C344.553,12.478,361.393,12.208,368.943,18.938z"/>
<path fill="#FFFFFF" d="M328.573,27.188c3.47,0.47,9.59,6.5,8.77,26.42c-1.29,31.811-4.42,372.141-4.66,398.41
	c-1.26,2.97-6.18,13.04-15.22,13.86c-1.13,0.1-2.45,0.149-3.91,0.149c-19.05,0-43.87-7.41-45.67-16.069
	c-2.59-12.41-5.5-142.82-6.479-196.28c12.75-5.64,18.5-5.48,19.59-5.38c11.58,4.38,24.81-0.561,33.1-12.431
	c8.29-11.88,10.79-30.31-2.31-44.72c-7.38-8.12-15.521-12.17-24.17-12.1c-13.311,0.14-22.41,10.43-22.82,10.88l-5.91,6.86
	c-0.08-3.32-0.18-7.221-0.31-11.82c-0.42-14.59-1.15-34.78-2.16-60.03c-1.73-42.96-3.72-86.26-3.75-86.76
	c-0.11-2.37,0.21-14.271,17.18-15.68c2.811-0.23,5.97-0.351,9.37-0.351c21.9,0,48.09,4.88,48.35,4.93
	C328.063,27.178,328.123,27.228,328.573,27.188z M316.513,358.138c4.271-4.17,6.771-10.11,6.771-16.74
	c0-13.37-9.79-26.24-22.771-29.93c-2.35-0.67-4.72-1.01-7.05-1.01c-12.71,0-22.29,9.859-22.29,22.939c0,6.58,2.47,13.32,6.78,18.86
	v23.41c0,9.409,6.88,18.47,16,21.06c1.72,0.49,3.49,0.74,5.229,0.74c9.721,0,17.33-7.76,17.33-17.66V358.138z"/>
<path fill="#1D1D1B" d="M323.283,341.398c0,6.63-2.5,12.57-6.771,16.74v21.67c0,9.9-7.609,17.66-17.33,17.66
	c-1.739,0-3.51-0.25-5.229-0.74c-9.12-2.59-16-11.65-16-21.06v-23.41c-4.311-5.54-6.78-12.28-6.78-18.86
	c0-13.08,9.58-22.939,22.29-22.939c2.33,0,4.7,0.34,7.05,1.01C313.493,315.158,323.283,328.028,323.283,341.398z M304.513,351.758
	c4.05-1.37,6.771-5.15,6.771-10.36c0-7.95-6.29-16.18-14.051-18.39c-1.31-0.37-2.569-0.55-3.77-0.55
	c-5.94,0-10.29,4.33-10.29,10.939c0,5.21,2.72,10.54,6.78,14.22v28.051c0,4.109,3.26,8.37,7.279,9.52
	c0.671,0.19,1.33,0.28,1.95,0.28c3.07,0,5.33-2.24,5.33-5.66V351.758z"/>
<path fill="#FFFFFF" d="M311.283,341.398c0,5.21-2.721,8.99-6.771,10.36v28.05c0,3.42-2.26,5.66-5.33,5.66
	c-0.62,0-1.279-0.09-1.95-0.28c-4.02-1.149-7.279-5.41-7.279-9.52v-28.051c-4.061-3.68-6.78-9.01-6.78-14.22
	c0-6.609,4.35-10.939,10.29-10.939c1.2,0,2.46,0.18,3.77,0.55C304.993,325.218,311.283,333.448,311.283,341.398z"/>
<path fill="#FFFFFF" d="M302.903,199.218c9.239,10.17,6.5,22.399,1.35,29.78c-3.97,5.68-11.4,11.18-19.32,7.96
	c-0.12-0.051-0.239-0.091-0.359-0.131c-2.44-0.81-12.24-2.52-35.971,9.69c-1,0.51-1.79,1.271-2.34,2.16
	c-11.479,5.91-38.189,17.78-67.67,17.78c-14.03,0-27.07-2.71-38.75-8.061c-59.37-27.18-97.84-43.18-118.78-44.53
	c-5.08-0.329-8.71-2.25-9.029-4.779c-0.54-4.271,6.43-13.181,27.85-20.2c6.71-2.2,13.54-3.32,20.311-3.32
	c24.05,0,44.779,13.71,63.06,25.8c3.32,2.19,6.45,4.261,9.55,6.221c23.82,15.05,46.49,22.68,67.37,22.68
	c20.94,0,39.96-7.62,56.53-22.64c0.029-0.03,0.06-0.051,0.09-0.08c0.46-0.41,0.84-0.771,1.14-1.271l15.931-18.489
	c0.06-0.061,6.02-6.65,13.88-6.74c0.05,0,0.1,0,0.149,0C292.923,191.048,297.973,193.798,302.903,199.218z"/>
<path fill="#FFFFFF" d="M244.533,128.118c0.46,11.341,0.87,22.25,1.229,32.24c-10.76-7.72-31.06-11.45-52.79-14.78
	c-3.45-0.529-6.5-1-8.77-1.409c2.01-5.29,14.08-17.86,25.77-20.46c15.771-3.5,34.01,4.18,34.32,4.319
	C244.373,128.058,244.453,128.088,244.533,128.118z"/>
</svg>
