<?xml version="1.0" encoding="utf-8"?>
<!-- Generator: Adobe Illustrator 15.1.0, SVG Export Plug-In . SVG Version: 6.00 Build 0)  -->
<!DOCTYPE svg PUBLIC "-//W3C//DTD SVG 1.1//EN" "http://www.w3.org/Graphics/SVG/1.1/DTD/svg11.dtd">
<svg version="1.1" id="Слой_1" xmlns="http://www.w3.org/2000/svg" xmlns:xlink="http://www.w3.org/1999/xlink" x="0px" y="0px"
	 width="254.67px" height="403.33px" viewBox="0 0 254.67 403.33" enable-background="new 0 0 254.67 403.33" xml:space="preserve">
<g>
	<path fill="#1D1D1B" d="M250.3,43.561c2.59,0.729,4.38,3.1,4.37,5.79l-1.33,348c-0.01,2-1.01,3.859-2.67,4.97
		c-1,0.67-2.16,1.01-3.33,1.01c-0.77,0-1.54-0.15-2.27-0.44l-79.721-32.56c-6.939,4.48-13.38,6.17-19.04,6.17
		c-10.279,0-18.02-5.55-21.659-10.09c-0.69-0.87-1.101-1.87-1.25-2.9l-96.67,11.78c-0.24,0.03-0.49,0.04-0.73,0.04
		c-1.39,0-2.76-0.49-3.84-1.39c-1.271-1.061-2.05-2.601-2.15-4.261l-20-340.659c-0.189-3.301,2.311-6.131,5.61-6.341l110.41-7.109
		C116.441,7.91,123.291,0,141.46,0c18.771,0,25.46,8.43,25.46,16.33c0,1.18-0.16,2.37-0.47,3.54L250.3,43.561z M241.371,388.41
		l1.28-334.54l-75.17-21.24l5.79,327.971L241.371,388.41z M161.231,358.69l-0.79-44.601c-5.33,2.681-10.311,3.75-14.801,3.75
		c-4.05,0-7.689-0.87-10.859-2.189l1.22,40.83c0.04,1.279-0.34,2.46-0.99,3.46c2.98,2.81,11.88,8.97,25.49-0.811
		C160.741,358.96,160.981,358.82,161.231,358.69z M160.201,300.22l-0.96-54.52c-5.13,2.479-9.931,3.47-14.271,3.47
		c-4.66,0-8.779-1.14-12.25-2.81l1.63,54.93c3,2.811,11.9,8.94,25.48-0.83C159.951,300.37,160.081,300.3,160.201,300.22z
		 M158.991,231.91l-1.03-58.32c-6.16,3.54-11.88,4.91-16.99,4.91c-3.819,0-7.29-0.77-10.34-1.97l1.63,54.57
		c0.141,0.14,0.271,0.289,0.4,0.439C133.71,232.811,143.14,243.18,158.991,231.91z M157.731,160.08l-1.061-59.78
		c-5.67,3.021-10.95,4.2-15.7,4.2c-4.8,0-9.04-1.21-12.569-2.97l1.81,60.89c3.43,2.95,12.09,7.95,24.96-1.29
		C155.951,160.561,156.831,160.22,157.731,160.08z M156.43,86.44l-0.989-55.891c-3.631,1.32-8.24,2.11-13.98,2.11
		c-6.4,0-11.39-0.98-15.189-2.58l1.67,56.06c0.25,0.221,0.5,0.471,0.72,0.74c1.06,1.271,10.55,11.71,26.51,0.25
		C155.571,86.84,155.991,86.62,156.43,86.44z M154.92,16.33c0-2.39-6.03-4.33-13.46-4.33S128,13.94,128,16.33s6.03,4.33,13.46,4.33
		S154.92,18.72,154.92,16.33z M123.84,351.37l-5.51-184.76c-0.39-1.16-0.42-2.391-0.1-3.55l-4.04-135.341L12.34,34.271l19.28,328.33
		L123.84,351.37z"/>
</g>
<g>
	<polygon fill="#FFFFFF" points="242.651,53.87 241.371,388.41 173.271,360.601 167.481,32.63 	"/>
</g>
<g>
	<path fill="#FFFFFF" d="M160.441,314.09l0.79,44.601c-0.25,0.13-0.49,0.27-0.73,0.439c-13.61,9.78-22.51,3.62-25.49,0.811
		c0.65-1,1.03-2.181,0.99-3.46l-1.22-40.83c3.17,1.319,6.81,2.189,10.859,2.189C150.13,317.84,155.111,316.771,160.441,314.09z"/>
</g>
<g>
	<path fill="#FFFFFF" d="M159.241,245.7l0.96,54.52c-0.12,0.08-0.25,0.15-0.37,0.24c-13.58,9.771-22.48,3.641-25.48,0.83
		l-1.63-54.93c3.471,1.67,7.59,2.81,12.25,2.81C149.31,249.17,154.111,248.18,159.241,245.7z"/>
</g>
<g>
	<path fill="#FFFFFF" d="M157.96,173.59l1.03,58.32c-15.851,11.27-25.28,0.9-26.33-0.37c-0.13-0.15-0.26-0.3-0.4-0.439l-1.63-54.57
		c3.05,1.2,6.521,1.97,10.34,1.97C146.081,178.5,151.8,177.13,157.96,173.59z"/>
</g>
<g>
	<path fill="#FFFFFF" d="M156.67,100.3l1.061,59.78c-0.9,0.14-1.78,0.48-2.561,1.05c-12.87,9.24-21.53,4.24-24.96,1.29l-1.81-60.89
		c3.529,1.76,7.77,2.97,12.569,2.97C145.72,104.5,151,103.32,156.67,100.3z"/>
</g>
<g>
	<path fill="#FFFFFF" d="M155.441,30.55l0.989,55.891c-0.439,0.18-0.859,0.399-1.26,0.689c-15.96,11.46-25.45,1.021-26.51-0.25
		c-0.22-0.27-0.47-0.52-0.72-0.74l-1.67-56.06c3.8,1.6,8.789,2.58,15.189,2.58C147.201,32.66,151.81,31.87,155.441,30.55z"/>
</g>
<g>
	<path fill="#FFFFFF" d="M141.46,12c7.43,0,13.46,1.94,13.46,4.33s-6.03,4.33-13.46,4.33S128,18.72,128,16.33S134.031,12,141.46,12z
		"/>
</g>
<g>
	<path fill="#FFFFFF" d="M118.331,166.61l5.51,184.76l-92.22,11.23L12.34,34.271l101.851-6.551l4.04,135.341
		C117.911,164.22,117.941,165.45,118.331,166.61z"/>
</g>
<g>
	<g>
		<path fill="#1D1D1B" d="M81.355,99.031L81.355,99.031C71.114,99.03,62.9,90.5,62.247,79.188
			c-0.728-12.585,7.552-24.245,18.849-26.544c1.274-0.259,2.564-0.391,3.834-0.391c10.425,0,18.643,8.718,19.114,20.277
			c0.505,12.385-7.783,23.854-18.867,26.11C83.906,98.9,82.621,99.031,81.355,99.031z M84.929,64.254
			c-0.468,0-0.952,0.051-1.441,0.15c-5.398,1.098-9.64,7.552-9.261,14.092c0.29,5.025,3.221,8.535,7.128,8.535l0,0
			c0.464,0,0.944-0.05,1.428-0.148c5.287-1.076,9.533-7.425,9.271-13.862C91.846,67.941,88.85,64.254,84.929,64.254z"/>
	</g>
	<g>
		<path fill="#1D1D1B" d="M52.445,226.715C52.444,226.715,52.445,226.715,52.445,226.715c-9.766,0-17.441-7.398-18.253-17.593
			c-0.898-11.307,6.833-21.886,17.603-24.083c1.28-0.261,2.576-0.394,3.853-0.394c9.775,0,17.628,7.723,18.267,17.964
			c0.694,11.136-7.047,21.552-17.624,23.713C55.012,226.583,53.719,226.715,52.445,226.715z M55.647,196.646
			c-0.473,0-0.962,0.051-1.454,0.151c-4.77,0.974-8.451,6.182-8.038,11.374c0.312,3.914,2.839,6.544,6.289,6.544
			c0.471,0,0.956-0.051,1.444-0.15c4.682-0.956,8.368-6.089,8.049-11.208C61.691,199.405,59.104,196.646,55.647,196.646z"/>
	</g>
	<g>
		<path fill="#1D1D1B" d="M92.471,324.646C92.47,324.646,92.47,324.646,92.471,324.646c-9.295-0.001-16.431-6.781-16.97-16.123
			c-0.591-10.224,6.926-19.865,17.113-21.95c1.278-0.262,2.569-0.395,3.837-0.395c9.295,0,16.592,7.069,16.975,16.443
			c0.411,10.08-7.112,19.581-17.128,21.631C95.025,324.513,93.737,324.646,92.471,324.646z M96.452,298.178
			c-0.462,0-0.943,0.051-1.432,0.15c-4.258,0.872-7.78,5.313-7.538,9.502c0.168,2.926,2.127,4.815,4.988,4.815h0.001
			c0.459,0,0.937-0.051,1.42-0.149c4.262-0.872,7.717-5.17,7.545-9.386C101.314,300.114,99.357,298.178,96.452,298.178z"/>
	</g>
</g>
<g>
	<g>
		<path fill="#1D1D1B" d="M196.912,106.192c-1.265,0-2.545-0.194-3.805-0.577c-8.208-2.498-14.399-12.741-14.399-23.828
			c0-10.563,5.926-18.229,14.091-18.229c1.265,0,2.544,0.194,3.803,0.577c8.21,2.5,14.4,12.743,14.4,23.828
			C211.001,98.526,205.076,106.192,196.912,106.192z M192.798,75.558c-0.487,0-2.091,1.941-2.091,6.229
			c0,6.443,3.49,11.616,5.894,12.348c0.166,0.051,0.266,0.058,0.311,0.058c0.429,0,2.09-1.932,2.09-6.229
			c0-6.442-3.491-11.616-5.895-12.348C192.944,75.565,192.843,75.558,192.798,75.558z"/>
	</g>
	<g>
		<path fill="#1D1D1B" d="M222.617,229.683c-1.265,0-2.544-0.194-3.803-0.577c-8.21-2.5-14.4-12.743-14.4-23.828
			c0-10.563,5.926-18.229,14.09-18.229c1.265,0,2.545,0.194,3.805,0.577c8.208,2.498,14.399,12.741,14.399,23.828
			C236.708,222.016,230.782,229.683,222.617,229.683z M218.503,199.048c-0.429,0-2.09,1.932-2.09,6.229
			c0,6.442,3.491,11.616,5.895,12.348c0.163,0.05,0.264,0.058,0.309,0.058c0.487,0,2.091-1.941,2.091-6.229
			c0-6.443-3.49-11.616-5.894-12.348C218.648,199.055,218.548,199.048,218.503,199.048z"/>
	</g>
	<g>
		<path fill="#1D1D1B" d="M196.912,337.526c-1.265,0-2.545-0.194-3.805-0.577c-8.208-2.498-14.399-12.741-14.399-23.828
			c0-10.563,5.926-18.229,14.091-18.229c1.265,0,2.544,0.194,3.803,0.577c8.21,2.5,14.4,12.743,14.4,23.828
			C211.001,329.86,205.076,337.526,196.912,337.526z M192.798,306.892c-0.487,0-2.091,1.941-2.091,6.229
			c0,6.443,3.49,11.616,5.894,12.348c0.166,0.051,0.266,0.058,0.311,0.058c0.429,0,2.09-1.932,2.09-6.229
			c0-6.442-3.491-11.616-5.895-12.348C192.944,306.899,192.843,306.892,192.798,306.892z"/>
	</g>
</g>
</svg>
