<?xml version="1.0" encoding="utf-8"?>
<!-- Generator: Adobe Illustrator 15.1.0, SVG Export Plug-In . SVG Version: 6.00 Build 0)  -->
<!DOCTYPE svg PUBLIC "-//W3C//DTD SVG 1.1//EN" "http://www.w3.org/Graphics/SVG/1.1/DTD/svg11.dtd">
<svg version="1.1" id="Слой_1" xmlns="http://www.w3.org/2000/svg" xmlns:xlink="http://www.w3.org/1999/xlink" x="0px" y="0px"
	 width="432.003px" height="442.09px" viewBox="0 0 432.003 442.09" enable-background="new 0 0 432.003 442.09"
	 xml:space="preserve">
<path fill="#1D1D1B" d="M432.003,390.75v14c0,1.24-0.38,2.44-1.09,3.45l-22,31.34c-1.14,1.61-2.979,2.55-4.91,2.55
	c-0.37,0-0.729-0.04-1.1-0.1l-300.67-56c-2.84-0.53-4.9-3.011-4.9-5.9v-12.67c0-1.3,0.42-2.56,1.2-3.6l12.8-17.07v-22
	c0-0.05,0.01-0.11,0.01-0.16c0-0.13,0.011-0.26,0.021-0.39c0.01-0.101,0.02-0.19,0.04-0.28c0.01-0.08,0.01-0.15,0.02-0.229
	c0.011-0.04,0.021-0.07,0.03-0.11c0.01-0.03,0.01-0.07,0.02-0.101l6.66-30.67c0.011-0.04,0.03-0.08,0.04-0.13
	c0.04-0.16,0.08-0.319,0.141-0.47c0.02-0.07,0.04-0.13,0.06-0.19c0.08-0.21,0.16-0.42,0.26-0.609c0-0.01,0.011-0.021,0.011-0.021
	c0.109-0.22,0.229-0.42,0.359-0.62c0.03-0.04,0.05-0.069,0.08-0.109c0.11-0.15,0.22-0.3,0.34-0.44c0.021-0.029,0.04-0.06,0.061-0.08
	l14-16c1.359-1.55,3.41-2.3,5.439-1.979l123.21,19.29c0.53-0.05,1.08-0.03,1.63,0.069l0.2,0.04L262.983,79.99l-50.04,72.83
	c-1.16,1.689-3.04,2.6-4.95,2.6c-1.13,0-2.26-0.32-3.28-0.979l-3.8-2.49l-48.46,63.24l1.93,1.52c2.601,2.05,3.051,5.83,0.99,8.43
	c-1.18,1.5-2.939,2.28-4.71,2.28c-1.3,0-2.61-0.42-3.71-1.29l-1.8-1.42L84.093,304.4c-0.319,0.43-0.689,0.79-1.09,1.1l4.891,6.01
	l13.89,15.391c1.85,2.05,2.07,5.09,0.52,7.38l-8,11.83c-0.01,0.02-0.02,0.029-0.029,0.04c-0.011,0.02-0.021,0.04-0.03,0.06
	c-0.07,0.09-0.14,0.17-0.21,0.25c-0.07,0.1-0.14,0.19-0.22,0.28c-0.101,0.109-0.2,0.21-0.301,0.31c-0.069,0.07-0.14,0.141-0.22,0.21
	c-0.12,0.101-0.24,0.19-0.37,0.29c-0.06,0.05-0.13,0.101-0.2,0.15c-0.13,0.09-0.27,0.17-0.409,0.25c-0.07,0.04-0.141,0.09-0.21,0.12
	c-0.141,0.069-0.28,0.13-0.42,0.199c-0.08,0.03-0.16,0.07-0.24,0.101c-0.141,0.05-0.28,0.09-0.42,0.13
	c-0.09,0.03-0.181,0.06-0.271,0.08c-0.14,0.04-0.29,0.06-0.439,0.08c-0.091,0.02-0.17,0.04-0.261,0.05
	c-0.239,0.03-0.479,0.04-0.729,0.04c-0.08,0-0.17-0.01-0.26-0.021c-0.19,0-0.391-0.01-0.58-0.039h-0.03c-0.01,0-0.02,0-0.03-0.011
	L5.144,336.69c-2.101-0.301-3.881-1.69-4.69-3.641c-0.81-1.96-0.52-4.2,0.75-5.899l10-13.33c0.86-1.15,2.12-1.96,3.53-2.261
	l58.67-12.67c0.08-0.02,0.16-0.02,0.24-0.04c0.21-0.609,0.51-1.199,0.93-1.75l61.16-79.819l-1.45-1.15
	c-2.6-2.05-3.05-5.83-0.99-8.43c2.05-2.601,5.82-3.04,8.42-0.99l1.32,1.04l47.8-62.38l-3.45-2.26c-1.37-0.9-2.31-2.311-2.609-3.91
	c-0.311-1.61,0.06-3.271,1.01-4.601l76.67-107.33c0.09-0.13,0.18-0.239,0.28-0.359l-0.07-14.13c0-1.67,0.69-3.28,1.92-4.42
	c5.96-5.551,12.15-8.36,18.42-8.36c14.44,0,22.61,14.95,22.95,15.59c0.47,0.87,0.71,1.851,0.71,2.84l-0.65,280.91l11.75,2.18
	c0.78,0.15,1.5,0.44,2.131,0.841l81.21,15.159c2,0.381,3.68,1.74,4.449,3.631l0.521,1.26c0.68,0.88,1.09,1.91,1.22,2.979
	l4.26,10.431c0.311,0.739,0.46,1.55,0.45,2.35l-0.609,41.57l16.449,5.3C430.323,385.84,432.003,388.15,432.003,390.75z
	 M420.003,402.86v-7.74l-11.78-3.79l-14.289,26.29c-0.48,0.88-1.15,1.59-1.931,2.109v8.021l9.3,1.729L420.003,402.86z
	 M399.983,339.229l-0.53-1.289l-3.76,4.649l-3.69,24.61v28.859l7.351-13.54L399.983,339.229z M387.513,333.62l4.521-5.58
	l-93.13-17.39c-0.75-0.141-1.44-0.421-2.05-0.801l-28.73-5.319l-127.79-20l-4.78,5.47l251.471,43.51
	C387.193,333.54,387.354,333.58,387.513,333.62z M380.063,365.86l3.13-20.841l-254.55-44.04l-4.131,18.971l255.54,46.109
	C380.063,366,380.053,365.93,380.063,365.86z M380.003,425.51v-47.26l-256.67-46.32v16.82c0,1.3-0.42,2.57-1.2,3.6l-12.8,17.07v5.68
	L380.003,425.51z M294.013,297.12l0.65-277c-1.66-2.47-6.08-8.12-11.66-8.12c-2.58,0-5.37,1.17-8.319,3.49l1.289,278.29
	L294.013,297.12z M262.883,58.94l-0.06-11.561l-63.64,89.11l7.189,4.7L262.883,58.94z M89.733,331.45l-10.851-12.01
	c-0.069-0.08-0.14-0.15-0.21-0.24l-6.34-7.8l-13.13,2.829l28.58,20.101L89.733,331.45z M16.873,326.26l48.5,6.98l-22.14-15.561
	l-23.78,5.13L16.873,326.26z"/>
<path fill="#FFFFFF" d="M420.003,395.12v7.74l-18.7,26.619l-9.3-1.729v-8.021c0.78-0.52,1.45-1.229,1.931-2.109l14.289-26.29
	L420.003,395.12z"/>
<polygon fill="#FFFFFF" points="399.453,337.94 399.983,339.229 399.354,382.52 392.003,396.06 392.003,367.2 395.693,342.59 "/>
<path fill="#FFFFFF" d="M392.033,328.04l-4.521,5.58c-0.159-0.04-0.319-0.08-0.489-0.11L135.553,290l4.78-5.47l127.79,20
	l28.73,5.319c0.609,0.38,1.3,0.66,2.05,0.801L392.033,328.04z"/>
<path fill="#FFFFFF" d="M383.193,345.02l-3.13,20.841c-0.011,0.069,0,0.14-0.011,0.199l-255.54-46.109l4.131-18.971L383.193,345.02z
	"/>
<path fill="#FFFFFF" d="M380.003,378.25v47.26l-270.67-50.41v-5.68l12.8-17.07c0.78-1.029,1.2-2.3,1.2-3.6v-16.82L380.003,378.25z"
	/>
<path fill="#FFFFFF" d="M294.663,20.12l-0.65,277l-18.04-3.34l-1.289-278.29c2.949-2.32,5.739-3.49,8.319-3.49
	C288.583,12,293.003,17.65,294.663,20.12z M289.003,25.42c0-3.13-1.939-5.67-4.34-5.67c-2.39,0-4.33,2.54-4.33,5.67
	s1.94,5.67,4.33,5.67C287.063,31.09,289.003,28.55,289.003,25.42z"/>
<path fill="#1D1D1B" d="M284.663,19.75c2.4,0,4.34,2.54,4.34,5.67s-1.939,5.67-4.34,5.67c-2.39,0-4.33-2.54-4.33-5.67
	S282.273,19.75,284.663,19.75z"/>
<polygon fill="#FFFFFF" points="262.823,47.38 262.883,58.94 206.373,141.19 199.184,136.49 "/>
<path fill="#FFFFFF" d="M78.883,319.44l10.851,12.01l-1.95,2.88l-28.58-20.101l13.13-2.829l6.34,7.8
	C78.743,319.29,78.813,319.36,78.883,319.44z"/>
<polygon fill="#FFFFFF" points="65.373,333.24 16.873,326.26 19.453,322.81 43.233,317.68 "/>
</svg>
