<?xml version="1.0" encoding="utf-8"?>
<!-- Generator: Adobe Illustrator 15.1.0, SVG Export Plug-In . SVG Version: 6.00 Build 0)  -->
<!DOCTYPE svg PUBLIC "-//W3C//DTD SVG 1.1//EN" "http://www.w3.org/Graphics/SVG/1.1/DTD/svg11.dtd">
<svg version="1.1" id="Слой_1" xmlns="http://www.w3.org/2000/svg" xmlns:xlink="http://www.w3.org/1999/xlink" x="0px" y="0px"
	 width="381.744px" height="394.141px" viewBox="0 0 381.744 394.141" enable-background="new 0 0 381.744 394.141"
	 xml:space="preserve">
<path fill="#1D1D1B" d="M381.681,138.24c0.97,29.431-9.24,57.05-28.73,77.76c-19.79,21.03-47.51,33.601-78.54,35.74
	c1.89,8.13,3,16.38,3.271,24.66c1.02,31.021-9.921,59.99-30.801,81.55c-22.58,23.34-54.56,36.19-90.029,36.19
	c-4.851,0-9.801-0.25-14.721-0.73c-37.689-3.7-73.279-20.97-100.21-48.62C14.891,317.03,0,282.341,0,247.101
	c0-63.17,49.33-111.21,115.63-113.68c-1.52-7.78-2.3-15.641-2.3-23.44c0-31.64,12.71-60.31,35.78-80.7
	c25.479-22.53,61.54-32.81,98.92-28.2c34.83,4.301,67.83,20.811,92.92,46.48C366.15,73.341,380.61,105.551,381.681,138.24z
	 M344.21,207.78c17.29-18.37,26.34-42.93,25.48-69.14c-2-61.15-57.23-117.521-123.13-125.65
	c-33.971-4.189-66.601,5.021-89.511,25.28c-20.449,18.08-31.72,43.55-31.72,71.71c0,7.82,0.87,15.71,2.57,23.51
	c3.81,0.181,7.64,0.49,11.46,0.96c3.25,0.41,6.49,0.91,9.71,1.521l27.14-41.7c1.12-1.94,9.7-16.14,26.04-26.3
	c16.01-9.96,42.65-17.79,78.58,1.479c22.521,12.07,36.08,28.25,40.28,48.08c6.79,32.03-13.5,59.95-13.71,60.22
	c-3.99,5.131-32.23,43.601-39.521,53.53c1.16,2.86,2.23,5.74,3.19,8.641C300.09,238.5,325.99,227.15,344.21,207.78z
	 M297.931,170.381c3.439-4.431,16.319-27.33,11.439-50.36c-3.439-16.21-14.95-29.67-34.21-40c-58.53-31.38-87.4,18.189-88.6,20.32
	c-0.061,0.109-0.13,0.229-0.2,0.33l-24.84,38.17c27.72,7.58,53.43,22.67,74.01,43.72c10.85,11.1,19.77,23.35,26.57,36.31
	C272.601,204.58,294.33,175,297.931,170.381z M238.26,349.61c18.591-19.21,28.33-45.07,27.431-72.82
	c-2.08-63.479-59.41-121.989-127.8-130.43c-5.65-0.689-11.33-1.05-16.891-1.05c-62.14,0-109,43.76-109,101.79
	c0,8.37,0.92,16.63,2.67,24.7c0.11-51.601,42.82-90.49,99.431-90.49c4.949,0,10.01,0.31,15.029,0.91
	c29.511,3.52,57.48,17.05,78.75,38.1c21.431,21.2,33.73,47.71,34.641,74.65c0.819,24.189-7.82,46.91-24.32,63.979
	c-6.6,6.83-14.21,12.561-22.6,17.12C212,370.65,226.561,361.7,238.26,349.61z M209.57,350.61c14.22-14.71,21.66-34.33,20.95-55.24
	c-1.66-49.26-47.79-94.67-102.82-101.239c-4.55-0.54-9.12-0.82-13.6-0.82c-49.851,0-87.44,33.83-87.44,78.68
	c0,51.97,47.4,98.76,105.65,104.29c3.649,0.351,7.319,0.53,10.909,0.53C169.681,376.811,193.24,367.5,209.57,350.61z"/>
<path fill="#FFFFFF" d="M369.69,138.641c0.859,26.21-8.19,50.77-25.48,69.14c-18.22,19.37-44.12,30.72-73.14,32.141
	c-0.96-2.9-2.03-5.78-3.19-8.641c7.29-9.93,35.53-48.399,39.521-53.53c0.21-0.27,20.5-28.189,13.71-60.22
	c-4.2-19.83-17.76-36.01-40.28-48.08c-35.93-19.27-62.57-11.439-78.58-1.479c-16.34,10.16-24.92,24.359-26.04,26.3l-27.14,41.7
	c-3.22-0.61-6.46-1.11-9.71-1.521c-3.82-0.47-7.65-0.779-11.46-0.96c-1.7-7.8-2.57-15.689-2.57-23.51
	c0-28.16,11.271-53.63,31.72-71.71c22.91-20.26,55.54-29.47,89.511-25.28C312.46,21.12,367.69,77.49,369.69,138.641z"/>
<path fill="#FFFFFF" d="M309.37,120.021c4.88,23.03-8,45.93-11.439,50.36c-3.601,4.619-25.33,34.199-35.83,48.489
	c-6.801-12.96-15.721-25.21-26.57-36.31c-20.58-21.05-46.29-36.14-74.01-43.72l24.84-38.17c0.07-0.101,0.14-0.221,0.2-0.33
	c1.199-2.131,30.069-51.7,88.6-20.32C294.42,90.351,305.931,103.811,309.37,120.021z"/>
<path fill="#FFFFFF" d="M265.69,276.79c0.899,27.75-8.84,53.61-27.431,72.82c-11.699,12.09-26.26,21.04-42.659,26.46
	c8.39-4.56,16-10.29,22.6-17.12c16.5-17.069,25.14-39.79,24.32-63.979c-0.91-26.94-13.21-53.45-34.641-74.65
	c-21.27-21.05-49.239-34.58-78.75-38.1c-5.02-0.601-10.08-0.91-15.029-0.91c-56.61,0-99.32,38.89-99.431,90.49
	c-1.75-8.07-2.67-16.33-2.67-24.7c0-58.03,46.86-101.79,109-101.79c5.561,0,11.24,0.36,16.891,1.05
	C206.28,154.801,263.61,213.311,265.69,276.79z"/>
<path fill="#FFFFFF" d="M230.521,295.37c0.71,20.91-6.73,40.53-20.95,55.24c-16.33,16.89-39.89,26.2-66.351,26.2
	c-3.59,0-7.26-0.18-10.909-0.53c-58.25-5.53-105.65-52.32-105.65-104.29c0-44.85,37.59-78.68,87.44-78.68
	c4.479,0,9.05,0.28,13.6,0.82C182.73,200.7,228.86,246.11,230.521,295.37z M185.79,325.761c10.22-10.57,15.57-24.63,15.061-39.601
	c-0.561-16.54-8.08-32.79-21.19-45.76c-12.95-12.82-29.99-21.06-47.96-23.2c-3.06-0.37-6.15-0.55-9.17-0.55
	c-34.89,0-61.2,24.08-61.2,56.03c0,35.49,31.88,67.39,71.061,71.109c2.449,0.23,4.93,0.351,7.35,0.351
	C157.97,344.141,174.33,337.61,185.79,325.761z"/>
<path fill="#1D1D1B" d="M200.851,286.16c0.51,14.971-4.841,29.03-15.061,39.601c-11.46,11.85-27.82,18.38-46.05,18.38
	c-2.42,0-4.9-0.12-7.35-0.351c-39.181-3.72-71.061-35.619-71.061-71.109c0-31.95,26.311-56.03,61.2-56.03
	c3.02,0,6.11,0.18,9.17,0.55c17.97,2.141,35.01,10.38,47.96,23.2C192.771,253.37,200.29,269.62,200.851,286.16z M177.16,317.41
	c7.94-8.2,12.09-19.16,11.7-30.84c-0.95-27.939-27.23-53.71-58.58-57.46c-2.6-0.3-5.2-0.46-7.75-0.46
	c-28.05,0-49.2,18.93-49.2,44.03c0,28.97,27.57,56.06,60.19,59.16c2.08,0.199,4.17,0.3,6.22,0.3
	C154.69,332.141,167.99,326.91,177.16,317.41z"/>
<path fill="#FFFFFF" d="M188.86,286.57c0.39,11.68-3.76,22.64-11.7,30.84c-9.17,9.5-22.47,14.73-37.42,14.73
	c-2.05,0-4.14-0.101-6.22-0.3c-32.62-3.101-60.19-30.19-60.19-59.16c0-25.101,21.15-44.03,49.2-44.03c2.55,0,5.15,0.16,7.75,0.46
	C161.63,232.86,187.91,258.631,188.86,286.57z M159.95,293.221c4.66-4.83,7.1-11.23,6.87-18.05c-0.51-15.03-13.72-28.33-30.07-30.28
	c-1.34-0.16-2.68-0.24-3.99-0.24c-15.64,0-27.43,10.92-27.43,25.42c0,15.61,13.86,29.63,30.9,31.25c1.069,0.101,2.149,0.15,3.2,0.15
	C147.521,301.471,154.8,298.54,159.95,293.221z"/>
<path fill="#1D1D1B" d="M166.82,275.171c0.229,6.819-2.21,13.22-6.87,18.05c-5.15,5.319-12.43,8.25-20.52,8.25
	c-1.051,0-2.131-0.05-3.2-0.15c-17.04-1.62-30.9-15.64-30.9-31.25c0-14.5,11.79-25.42,27.43-25.42c1.311,0,2.65,0.08,3.99,0.24
	C153.101,246.841,166.311,260.141,166.82,275.171z M151.32,284.881c2.42-2.5,3.63-5.721,3.51-9.301
	c-0.31-9.109-9.06-17.529-19.51-18.779c-0.86-0.101-1.72-0.15-2.561-0.15c-8.939,0-15.43,5.64-15.43,13.42
	c0,9.43,9.18,18.271,20.04,19.3C142.97,289.91,148.05,288.261,151.32,284.881z"/>
<path fill="#FFFFFF" d="M154.83,275.58c0.12,3.58-1.09,6.801-3.51,9.301c-3.271,3.38-8.351,5.029-13.95,4.489
	c-10.86-1.029-20.04-9.87-20.04-19.3c0-7.78,6.49-13.42,15.43-13.42c0.841,0,1.7,0.05,2.561,0.15
	C145.771,258.051,154.521,266.471,154.83,275.58z"/>
</svg>
