<?xml version="1.0" encoding="utf-8"?>
<!-- Generator: Adobe Illustrator 15.1.0, SVG Export Plug-In . SVG Version: 6.00 Build 0)  -->
<!DOCTYPE svg PUBLIC "-//W3C//DTD SVG 1.1//EN" "http://www.w3.org/Graphics/SVG/1.1/DTD/svg11.dtd">
<svg version="1.1" id="Слой_1" xmlns="http://www.w3.org/2000/svg" xmlns:xlink="http://www.w3.org/1999/xlink" x="0px" y="0px"
	 width="240.67px" height="367.55px" viewBox="0 0 240.67 367.55" enable-background="new 0 0 240.67 367.55" xml:space="preserve">
<path fill="#1D1D1B" d="M240.67,116.04v152.67c0,0.39-0.04,0.78-0.11,1.16c-17.42,88.149-84.079,97.68-111.939,97.68
	c-0.01,0-0.01,0-0.01,0c-8.54,0-14.011-0.88-14.24-0.92c-57.58-8.63-85.3-41.88-98.41-68.25C1.85,269.98,1.35,243.89,1.34,242.79
	L0,111.44c0-0.061,0-0.12,0-0.171c0.021-1.14,0.68-28.069,14.83-55.35C28.37,29.81,57.25-1.42,117.48,0.05
	c59.27,1.44,89.659,32.88,104.72,59c16.17,28.03,18.37,55.4,18.45,56.55C240.66,115.75,240.67,115.89,240.67,116.04z M228.67,268.12
	V116.3c-0.22-2.399-2.82-27.1-17.08-51.63C191.9,30.8,160.13,13.09,117.19,12.04c-1.28-0.03-2.561-0.04-3.811-0.04
	C72.07,12,42.5,28.63,25.48,61.45C12.94,85.62,12.05,109.95,12,111.42l1.34,131.23c0,0.22,0.53,24.81,13.57,50.8
	c17.26,34.39,47.31,55.02,89.32,61.33c0.109,0.01,4.899,0.77,12.38,0.77h0.01C159.46,355.55,213.39,344.17,228.67,268.12z"/>
<path fill="#FFFFFF" d="M228.67,116.3v151.82c-15.28,76.05-69.21,87.43-100.05,87.43h-0.01c-7.48,0-12.271-0.76-12.38-0.77
	c-42.011-6.311-72.061-26.94-89.32-61.33c-13.04-25.99-13.57-50.58-13.57-50.8L12,111.42c0.05-1.47,0.94-25.8,13.48-49.97
	C42.5,28.63,72.07,12,113.38,12c1.25,0,2.53,0.01,3.811,0.04c42.939,1.05,74.71,18.76,94.399,52.63
	C225.85,89.2,228.45,113.9,228.67,116.3z M155.87,317.72c20.15-21.09,23.53-51.34,23.13-60.279c-0.65-14.351,0-126.561,0-127.69
	c0-0.11,0-0.21,0-0.31c-0.04-0.881-1.1-21.801-11.99-42.971c-10.27-19.97-31.38-43.76-73.67-43.76c-36.02,0-54.479,20.2-63.62,37.15
	C20.05,97.8,18.74,115.55,18.68,116.3c-0.01,0.141-0.01,0.271-0.01,0.41v135.33c0,0.19,0.01,0.38,0.03,0.57
	c0.07,0.77,1.89,18.88,11.89,38.27c13.47,26.13,35.351,41.95,63.271,45.78c4.51,0.609,8.939,0.93,13.17,0.93c0.01,0,0.01,0,0.01,0
	C126.84,337.59,143.271,330.9,155.87,317.72z"/>
<path fill="#1D1D1B" d="M179,257.44c0.4,8.939-2.979,39.189-23.13,60.279c-12.6,13.181-29.03,19.87-48.83,19.87c0,0,0,0-0.01,0
	c-4.23,0-8.66-0.32-13.17-0.93c-27.92-3.83-49.801-19.65-63.271-45.78c-10-19.39-11.819-37.5-11.89-38.27
	c-0.021-0.19-0.03-0.38-0.03-0.57V116.71c0-0.14,0-0.27,0.01-0.41c0.061-0.75,1.37-18.5,11.04-36.439
	C38.86,62.91,57.32,42.71,93.34,42.71c42.29,0,63.4,23.79,73.67,43.76c10.891,21.17,11.95,42.09,11.99,42.971c0,0.1,0,0.199,0,0.31
	C179,130.88,178.35,243.09,179,257.44z M147.19,309.43c15.83-16.55,20.239-42.26,19.819-51.449c-0.66-14.49-0.05-121.37-0.01-128.12
	c-0.1-1.681-1.44-20.17-10.83-38.24c-12.74-24.49-33.88-36.91-62.83-36.91c-24.03,0-41.819,10.271-52.88,30.521
	c-8.07,14.789-9.63,29.93-9.79,31.729v134.76c0.25,2.12,2.311,17.78,10.76,33.99c11.78,22.62,29.96,35.76,54.051,39.06
	c3.979,0.54,7.869,0.82,11.55,0.82h0.01C123.44,325.59,136.95,320.15,147.19,309.43z"/>
<path fill="#FFFFFF" d="M167.01,257.98c0.42,9.189-3.989,34.899-19.819,51.449c-10.24,10.721-23.75,16.16-40.15,16.16h-0.01
	c-3.681,0-7.57-0.28-11.55-0.82c-24.091-3.3-42.271-16.439-54.051-39.06c-8.449-16.21-10.51-31.87-10.76-33.99V116.96
	c0.16-1.8,1.72-16.94,9.79-31.729C51.521,64.98,69.31,54.71,93.34,54.71c28.95,0,50.09,12.42,62.83,36.91
	c9.39,18.07,10.73,36.56,10.83,38.24C166.96,136.61,166.35,243.49,167.01,257.98z M146.26,212.62c4.98-1.13,14.41-6.521,14.41-18.79
	c0-14.09-9.66-19.68-16.26-20.04l-12.48-1.13c-5.06-4.86-10.47-5.94-14.29-5.94c-2.659,0-5.02,0.521-6.88,1.13
	c-3.29-2.369-7.1-3.6-11.2-3.6c-3.81,0-7.189,1.07-9.59,2.12c-3.069-1.65-6.239-2.49-9.46-2.49c-4.939,0-8.729,1.99-10.979,3.58
	l-13.311-0.38c-0.55-0.01-1.109,0.04-1.649,0.18c-5.16,1.311-14.24,6.34-15.61,16.87c-1.8,13.78,7.5,20.63,12.66,22.32
	c0.439,0.14,0.88,0.24,1.34,0.28l14.64,1.31c3.2,3.84,7.66,5.91,12.83,5.91c3.19,0,6.13-0.79,8.32-1.61c3.3,1.98,7.11,3,11.23,3
	c3.329,0,6.319-0.66,8.5-1.34c3.17,2.01,6.56,3.02,10.119,3.02c5.591,0,10-2.56,12.48-4.439l13.76,0.2
	C145.32,212.78,145.79,212.73,146.26,212.62z"/>
<path fill="#1D1D1B" d="M160.67,193.83c0,12.27-9.43,17.66-14.41,18.79c-0.47,0.11-0.939,0.16-1.42,0.16l-13.76-0.2
	c-2.48,1.88-6.89,4.439-12.48,4.439c-3.56,0-6.949-1.01-10.119-3.02c-2.181,0.68-5.171,1.34-8.5,1.34c-4.12,0-7.931-1.02-11.23-3
	c-2.19,0.82-5.13,1.61-8.32,1.61c-5.17,0-9.63-2.07-12.83-5.91l-14.64-1.31c-0.46-0.04-0.9-0.141-1.34-0.28
	c-5.16-1.69-14.46-8.54-12.66-22.32c1.37-10.53,10.45-15.56,15.61-16.87c0.54-0.14,1.1-0.189,1.649-0.18l13.311,0.38
	c2.25-1.59,6.04-3.58,10.979-3.58c3.221,0,6.391,0.84,9.46,2.49c2.4-1.05,5.78-2.12,9.59-2.12c4.101,0,7.91,1.23,11.2,3.6
	c1.86-0.609,4.221-1.13,6.88-1.13c3.82,0,9.23,1.08,14.29,5.94l12.48,1.13C151.01,174.15,160.67,179.74,160.67,193.83z
	 M144.1,200.76c1.5-0.54,4.57-2.229,4.57-6.93c0-6.74-3.42-7.89-4.979-8.061c-0.12-0.01-0.061-0.01-0.23-0.02l-14.85-1.34
	c-1.561-0.141-3-0.88-4.021-2.07c-2.09-2.439-4.37-3.62-6.95-3.62c-2.689,0-4.84,1.25-4.859,1.261
	c-2.46,1.539-5.59,1.069-7.55-1.061c-1.671-1.82-3.471-2.67-5.671-2.67c-3.409,0-6.479,2-6.51,2.02c-2.12,1.461-4.89,1.37-6.95-0.17
	c-1.97-1.47-3.85-2.22-5.59-2.22c-2.5,0-4.33,1.57-4.609,1.83c-1.181,1.3-2.73,1.86-4.48,1.81l-14.53-0.42
	c-1.56,0.591-5.5,2.46-6.029,6.58c-0.79,6.04,2.42,8.391,4.069,9.17l16.5,1.49c1.95,0.17,3.69,1.28,4.67,2.98
	c1.07,1.87,2.33,2.63,4.33,2.63c2.591,0,5.391-1.33,5.99-1.69c2.271-1.33,5.13-1.029,7.08,0.74c1.74,1.58,3.86,2.34,6.48,2.34
	c3.619,0,6.729-1.47,6.76-1.479c0.85-0.431,1.76-0.641,2.68-0.641c1.42,0,2.83,0.511,3.95,1.49c1.78,1.56,3.49,2.31,5.22,2.31
	c3.25,0,5.98-2.609,6.01-2.64c1.15-1.189,2.74-1.85,4.4-1.83L144.1,200.76z"/>
<path fill="#FFFFFF" d="M148.67,193.83c0,4.7-3.07,6.39-4.57,6.93l-15.1-0.21c-1.66-0.02-3.25,0.641-4.4,1.83
	c-0.029,0.03-2.76,2.64-6.01,2.64c-1.729,0-3.439-0.75-5.22-2.31c-1.12-0.979-2.53-1.49-3.95-1.49c-0.92,0-1.83,0.21-2.68,0.641
	c-0.03,0.01-3.141,1.479-6.76,1.479c-2.62,0-4.74-0.76-6.48-2.34c-1.95-1.77-4.81-2.07-7.08-0.74c-0.6,0.36-3.399,1.69-5.99,1.69
	c-2,0-3.26-0.76-4.33-2.63c-0.979-1.7-2.72-2.811-4.67-2.98l-16.5-1.49c-1.649-0.779-4.859-3.13-4.069-9.17
	c0.529-4.12,4.47-5.989,6.029-6.58l14.53,0.42c1.75,0.051,3.3-0.51,4.48-1.81c0.279-0.26,2.109-1.83,4.609-1.83
	c1.74,0,3.62,0.75,5.59,2.22c2.061,1.54,4.83,1.631,6.95,0.17c0.03-0.02,3.101-2.02,6.51-2.02c2.2,0,4,0.85,5.671,2.67
	c1.96,2.13,5.09,2.6,7.55,1.061c0.02-0.011,2.17-1.261,4.859-1.261c2.58,0,4.86,1.181,6.95,3.62c1.021,1.19,2.46,1.93,4.021,2.07
	l14.85,1.34c0.17,0.01,0.11,0.01,0.23,0.02C145.25,185.94,148.67,187.09,148.67,193.83z"/>
</svg>
